<svg id="Camada_1" data-name="Camada 1" xmlns="http://www.w3.org/2000/svg" viewBox="0 0 642.13 711.3"><defs><style>.cls-1{fill:#000;}</style></defs><path class="cls-1" d="M382.49,100.91,109.58,277.26a17.64,17.64,0,0,0,0,29.62L383,484.29a31.56,31.56,0,0,0,34.37,0L691,306.46a17.64,17.64,0,0,0-.09-29.64l-274.26-176A31.56,31.56,0,0,0,382.49,100.91Zm18.07,324.72c-73.2,0-132.54-60.07-132.54-134.17a135.46,135.46,0,0,1,4.43-33.86c1.9-.36,59.44-11.08,123.19,4.46,0,0,72.72,15,131,70.77C509.38,386.67,459.49,425.63,400.56,425.63ZM388.29,238.68c-63.72-9.76-107.43-1.92-108.79-1.67,20.63-46.94,67-79.71,121.06-79.71,73.2,0,132.54,60.06,132.54,134.16a136.74,136.74,0,0,1-1.64,20.06C529.94,310,477.61,257.71,388.29,238.68Z" transform="translate(-79.2 -44)"/><path class="cls-1" d="M642,365.37a26.48,26.48,0,0,1,17.91-4.3c21.78,2.95,37.9,15.59,39,37.36V527.31l-.63,1.17A43.33,43.33,0,0,1,683,561.2a5,5,0,0,0,.17,7.75,40.78,40.78,0,0,1,15.73,31.85V703.43H687.66c-26.81,0-48.63-19.82-49.25-44.9V586.25a5.19,5.19,0,0,0-2.7-4.48l-6.24-3.54c-3.74-2.13-8.53.39-8.53,4.48V698.19a5.44,5.44,0,0,1-5.61,5.24h0c-30.3,0-54.86-23-54.86-48.63V429.7c0-10.56,2.39-12.81,14.12-20.43ZM629.88,531.22c3.74,2.13,8.53-.39,8.53-4.48V401.93a8.74,8.74,0,1,0-17.47,0V523.2a5.19,5.19,0,0,0,2.7,4.48Z" transform="translate(-79.2 -44)"/><path class="cls-1" d="M513.37,604l4.07-2.79c7.46-5.11,12.25-12,12.25-19.36l.87-123.09a11.33,11.33,0,0,0-17.5-9.52l-65.17,42.27L433,501.1l-7.6,5a29.09,29.09,0,0,0-13.12,24.32l-.87,144.91c.53,15.7,19.17,28.12,42.08,28.12h38.35c20.24,0,37.82-11.32,37.82-25.56V630.75c0-7.31-4.79-14.25-12.25-19.36l-4.07-2.79A2.63,2.63,0,0,1,513.37,604ZM478,673.12c0,2.92-3.19,5.11-7.45,5.11s-7.47-2.19-7.47-5.11v-45.3c0-2.56,4.09-4.14,7.29-2.81l5.33,2.22A3.27,3.27,0,0,1,478,630Zm0-80.53c0,2.6-4.19,4.17-7.38,2.76L465.31,593a3.21,3.21,0,0,1-2.21-2.76V514.6c0-2.93,3.2-5.49,7.47-5.49S478,512,478,514.6Z" transform="translate(-79.2 -44)"/><path class="cls-1" d="M157.31,402.07V697.5a5.87,5.87,0,0,1-5.75,5.9h-.16a.7.7,0,0,1-.39-.08,49.54,49.54,0,0,1-34.54-15,51.61,51.61,0,0,1-14.8-36.28V341a5.84,5.84,0,0,1,5.9-5.9,6.1,6.1,0,0,1,3.31,1,3.37,3.37,0,0,1,.86.71l.4.24C135.43,354.81,157.31,376.42,157.31,402.07Z" transform="translate(-79.2 -44)"/><path class="cls-1" d="M357.83,696.92a14.79,14.79,0,0,0,12.08,6.51c7.68,0,15.63-6.34,15.63-16.95V522.27c0-9.14-6.41-16-14.94-16a15.47,15.47,0,0,0-9.93,3.71l-45.24,35.23-.87.84a6.12,6.12,0,0,0-1.08,3c0,2.81,2.32,5,5.53,5a7.81,7.81,0,0,0,1.73-.35l14-4.75a3,3,0,0,1,3.95,2.83v48.84a3,3,0,0,1-5.55,1.55L314.6,571.59l-18.84-31.2L211.57,402.44A14.84,14.84,0,0,0,198.86,395c-7.7,0-15.66,6.34-15.66,16.94V686.48a17.48,17.48,0,0,0,4.64,12.12,15.25,15.25,0,0,0,11,4.83,14.78,14.78,0,0,0,11.61-5.81l68.83-86.3a5.84,5.84,0,0,0,.74-6.47,7.16,7.16,0,0,0-6.39-3.74,7.53,7.53,0,0,0-3.91,1.1l-38.86,24.22h0l3.89-2.43a3,3,0,0,1-4.66-2.58v-96a3,3,0,0,1,5.54-1.76l-4.34-6.15" transform="translate(-79.2 -44)"/></svg>