<svg id="Camada_1" data-name="Camada 1" xmlns="http://www.w3.org/2000/svg" viewBox="0 0 1607.27 1306.65"><defs><style>.cls-1{fill:#12110c;}.cls-2{fill:none;}.cls-3{fill:#fff;}</style></defs><path class="cls-1" d="M1784.29,1545.78c-23.22-108.36-47.77-216-73-319.79L1697,1167.26l-60.33,3.39c-28.9,1.63-47.66,2.61-56.28,3l-26.35,1.37-9.67.45V714.19L1255.5,547.38a34,34,0,0,0,4.49-17.11l-.12-20.12-1.63-11.7-.31-.91a33.92,33.92,0,0,0-8.11-12.94L1120.45,356.36a33.24,33.24,0,0,0-23.53-9.71,33.57,33.57,0,0,0-24.46,10.67l-33.72,36.24c-4.38-1.15-8.83-2.17-13.32-3A200.94,200.94,0,0,0,987.9,387a197.66,197.66,0,0,0-54.67,7.62,184.38,184.38,0,0,0-24.91,9.14L860.48,357A33.5,33.5,0,0,0,836,346.22c-.55,0-1.1,0-1.59,0l-2.44.11-2,.54c-1.33.22-5.32.54-11.91,1-2.69.17-4.73.31-6.41.46A33.66,33.66,0,0,0,781,376.25L750.84,546.73l-290,167.46V1175c-11.35-.69-22.48-.8-33.33-.91h-.17c-8.92-.08-18.14-.17-26.94-.63h-.26c-2.34-.1-4.27-.15-6.07-.15-25.63,0-49.83,7.82-71.92,23.25-24.37,17-41,39.43-49.43,66.72-23.48,75.94-46.48,154.74-68.37,234.18-10.19,37-2.27,73.07,21.76,99,18.83,20.2,45,31.33,73.59,31.33a122.73,122.73,0,0,0,21.59-2c29.83-5.32,60.57-10.34,91.36-14.92a139.16,139.16,0,0,0,21.18-4.89c130.19-17.29,225.4-28.11,307.34-34.89l40.34,81.8h417.88l53.12-78c78.45,6.87,169,16.68,284.41,30.81,14.46,2,28.56,4,41.94,6l29.72,4.46,29.18,4.95c20,3.38,40.92,7.12,62,11.14l107.5,20.51Zm-144.91,65.48-29.27-5-29.81-4.47c-13.16-2-27.34-4-42.14-6-118.07-14.46-210.33-24.42-290.37-31.33l-.29,0-53.44,78.46H787.69l-40.6-82.32-.34,0c-83.51,6.75-180.67,17.71-315.14,35.58a130,130,0,0,1-20.46,4.8c-30.68,4.56-61.52,9.59-91.66,15a112.62,112.62,0,0,1-19.83,1.82c-25.82,0-49.36-10-66.27-28.15-21.61-23.31-28.69-55.94-19.44-89.51,21.82-79.2,44.79-157.9,68.28-233.89,7.76-25.11,23.1-45.79,45.6-61.47,20.38-14.23,42.65-21.45,66.2-21.45,1.73,0,3.57,0,5.64.14h.2c8.83.46,17.79.55,27.34.64,14,.14,28.45.28,43.05,1.67l.54,0V720l289.08-166.9.22-1.28L790.85,378a23.64,23.64,0,0,1,21.54-19.69c1.63-.15,3.77-.29,6.24-.45,3.74-.24,11.54-.74,13.5-1.19l1.32-.35,1.36-.06,1.15,0a23.44,23.44,0,0,1,17.34,7.72l53,51.86A170.93,170.93,0,0,1,936,404.23,187.82,187.82,0,0,1,987.9,397a191.16,191.16,0,0,1,35.65,3.36,184.64,184.64,0,0,1,18.35,4.48l37.88-40.71a23.37,23.37,0,0,1,33.63-.67L1242.78,491.7a23.61,23.61,0,0,1,5.69,9.09l1.4,10.08.12,19.46a24,24,0,0,1-6.43,16.5l-2.45,2.64-.7.75,294,169.74v466l20.14-.94,26.4-1.37c11-.56,29.66-1.55,56.33-3.06l52-2.92,12.31,50.64c25.2,103.82,49.73,211.33,72.91,319.52l19.78,92.25-92.69-17.68C1680.87,1618.49,1659.94,1614.72,1639.38,1611.26Z" transform="translate(-199.96 -346.22)"/><path class="cls-2" d="M1774.51,1547.87c-23.18-108.19-47.71-215.7-72.91-319.52l-12.31-50.64-52,2.92c-26.67,1.51-45.36,2.5-56.33,3.06l-26.4,1.37-20.14.94V720l-294-169.74.7-.75,2.45-2.64a24,24,0,0,0,6.43-16.5l-.12-19.46-1.4-10.08a23.61,23.61,0,0,0-5.69-9.09L1113.41,363.46a23.37,23.37,0,0,0-33.63.67l-37.88,40.71a184.64,184.64,0,0,0-18.35-4.48A191.16,191.16,0,0,0,987.9,397,187.82,187.82,0,0,0,936,404.23a170.93,170.93,0,0,0-29.67,11.57l-53-51.86A23.44,23.44,0,0,0,836,356.22l-1.15,0-1.36.06-1.32.35c-2,.45-9.76.95-13.5,1.19-2.47.16-4.61.3-6.24.45A23.64,23.64,0,0,0,790.85,378L760.1,551.78l-.22,1.28L470.8,720v465.83l-.54,0c-14.6-1.39-29.06-1.53-43.05-1.67-9.55-.09-18.51-.18-27.34-.64h-.2c-2.07-.09-3.91-.14-5.64-.14-23.55,0-45.82,7.22-66.2,21.45-22.5,15.68-37.84,36.36-45.6,61.47-23.49,76-46.46,154.69-68.28,233.89-9.25,33.57-2.17,66.2,19.44,89.51,16.91,18.15,40.45,28.15,66.27,28.15a112.62,112.62,0,0,0,19.83-1.82c30.14-5.38,61-10.41,91.66-15a130,130,0,0,0,20.46-4.8c134.47-17.87,231.63-28.83,315.14-35.58l.34,0,40.6,82.32h406.37l53.44-78.46.29,0c80,6.91,172.3,16.87,290.37,31.33,14.8,2,29,4.06,42.14,6l29.81,4.47,29.27,5c20.56,3.46,41.49,7.23,62.22,11.18l92.69,17.68Zm-18.33,55-49.07-9.36c-21-4-42.1-7.8-62.8-11.29l-22.39-3.8,0-.14-37.19-5.58c-13.32-2-27.71-4.08-42.78-6.13-125.9-15.43-223.71-25.87-307.6-32.83l-53.93,79.18h-1.57l-.34.5H806l-.14-.28-41.17-83.5c-90.18,6.75-191.54,18-338.7,37.56a103.73,103.73,0,0,1-10.13,2.84l-.07,0q-4.53,1.11-9,1.77c-31,4.6-62.13,9.69-92.53,15.11a83.55,83.55,0,0,1-14.64,1.36c-17.82,0-33.26-6.47-44.67-18.71-8.53-9.21-21.52-29.47-12.64-61.68,21.73-78.92,44.62-157.32,68-233,5.78-18.69,17.33-34.18,34.34-46,15.33-10.71,31.93-16.14,49.33-16.14,1.28,0,2.68,0,4.31.11,9.47.49,19.17.59,28.56.68,18,.18,36.69.36,54.54,3.35,5.4.9,10.16,1.86,14.39,2.9l.32.07c1.43.34,2.8.68,4.1,1V737l.25-.14L753.17,590.94l18-10.41,6.8-3.93,34.24-191.9,22-2.36v0l0,0h.07v.07L895.72,442c22.78-14.43,55.39-25.49,87-25.49,21.74,0,50.35,5.79,68.55,13l44-47,130.92,128.14,0,0v.05h0v21.65l-26.61,28.37,20.14,11.63L1505,737v479.86c8-.34,16.07-.7,24-1.09l27-1.26,26.42-1.37q16.63-.84,56.48-3.06l27.54-1.55.15.61,1.64-.09,6.41,26.41c25.17,103.67,49.63,210.92,72.73,318.73l10.31,48.09-1.74-.33Z" transform="translate(-199.96 -346.22)"/><path class="cls-1" d="M734.44,1409l22.82-.58q.91-40.11,1.83-80.18Q746.78,1368.27,734.44,1409Zm170.16-81q-2.31,25-4.63,50l27.31-.14a20.8,20.8,0,0,0,11.87-3.55q5.16-3.3,5.5-8.27,1.33-19,2.66-38Zm0,0q-2.31,25-4.63,50l27.31-.14a20.8,20.8,0,0,0,11.87-3.55q5.16-3.3,5.5-8.27,1.33-19,2.66-38Zm-170.16,81,22.82-.58q.91-40.11,1.83-80.18Q746.78,1368.27,734.44,1409Zm0,0,22.82-.58q.91-40.11,1.83-80.18Q746.78,1368.27,734.44,1409Zm170.16-81q-2.31,25-4.63,50l27.31-.14a20.8,20.8,0,0,0,11.87-3.55q5.16-3.3,5.5-8.27,1.33-19,2.66-38Zm0,0q-2.31,25-4.63,50l27.31-.14a20.8,20.8,0,0,0,11.87-3.55q5.16-3.3,5.5-8.27,1.33-19,2.66-38Zm-170.16,81,22.82-.58q.91-40.11,1.83-80.18Q746.78,1368.27,734.44,1409Zm0,0,22.82-.58q.91-40.11,1.83-80.18Q746.78,1368.27,734.44,1409Zm170.16-81q-2.31,25-4.63,50l27.31-.14a20.8,20.8,0,0,0,11.87-3.55q5.16-3.3,5.5-8.27,1.33-19,2.66-38Zm0,0q-2.31,25-4.63,50l27.31-.14a20.8,20.8,0,0,0,11.87-3.55q5.16-3.3,5.5-8.27,1.33-19,2.66-38Zm-170.16,81,22.82-.58q.91-40.11,1.83-80.18Q746.78,1368.27,734.44,1409Zm0,0,22.82-.58q.91-40.11,1.83-80.18Q746.78,1368.27,734.44,1409Zm130.24,131.92L862.27,1564h9l2.4-23.15ZM904.6,1328q-2.31,25-4.63,50l27.31-.14a20.8,20.8,0,0,0,11.87-3.55q5.16-3.3,5.5-8.27,1.33-19,2.66-38Zm65.86,226.8q-7.2,0-7.21,8.73v15.69q0,8.61,7.21,8.6t7.22-8.6v-15.69Q977.68,1554.8,970.46,1554.8ZM904.6,1328q-2.31,25-4.63,50l27.31-.14a20.8,20.8,0,0,0,11.87-3.55q5.16-3.3,5.5-8.27,1.33-19,2.66-38Zm65.86,226.8q-7.2,0-7.21,8.73v15.69q0,8.61,7.21,8.6t7.22-8.6v-15.69Q977.68,1554.8,970.46,1554.8Zm-105.78-13.92L862.27,1564h9l2.4-23.15ZM734.44,1409l22.82-.58q.91-40.11,1.83-80.18Q746.78,1368.27,734.44,1409Zm0,0,22.82-.58q.91-40.11,1.83-80.18Q746.78,1368.27,734.44,1409Zm130.24,131.92L862.27,1564h9l2.4-23.15ZM904.6,1328q-2.31,25-4.63,50l27.31-.14a20.8,20.8,0,0,0,11.87-3.55q5.16-3.3,5.5-8.27,1.33-19,2.66-38Zm65.86,226.8q-7.2,0-7.21,8.73v15.69q0,8.61,7.21,8.6t7.22-8.6v-15.69Q977.68,1554.8,970.46,1554.8ZM1020.7,1522q-7.22,0-7.21,8.73v48.34q0,8.73,7.21,8.73t7.21-8.73v-48.34Q1027.91,1522,1020.7,1522Zm0,0q-7.22,0-7.21,8.73v48.34q0,8.73,7.21,8.73t7.21-8.73v-48.34Q1027.91,1522,1020.7,1522ZM904.6,1328q-2.31,25-4.63,50l27.31-.14a20.8,20.8,0,0,0,11.87-3.55q5.16-3.3,5.5-8.27,1.33-19,2.66-38Zm65.86,226.8q-7.2,0-7.21,8.73v15.69q0,8.61,7.21,8.6t7.22-8.6v-15.69Q977.68,1554.8,970.46,1554.8Zm-105.78-13.92L862.27,1564h9l2.4-23.15ZM734.44,1409l22.82-.58q.91-40.11,1.83-80.18Q746.78,1368.27,734.44,1409Zm0,0,22.82-.58q.91-40.11,1.83-80.18Q746.78,1368.27,734.44,1409Zm130.24,131.92L862.27,1564h9l2.4-23.15ZM904.6,1328q-2.31,25-4.63,50l27.31-.14a20.8,20.8,0,0,0,11.87-3.55q5.16-3.3,5.5-8.27,1.33-19,2.66-38Zm65.86,226.8q-7.2,0-7.21,8.73v15.69q0,8.61,7.21,8.6t7.22-8.6v-15.69Q977.68,1554.8,970.46,1554.8ZM1020.7,1522q-7.22,0-7.21,8.73v48.34q0,8.73,7.21,8.73t7.21-8.73v-48.34Q1027.91,1522,1020.7,1522Zm104.14,13.92-13.66,34.55h13.92v-34.55Zm0,0-13.66,34.55h13.92v-34.55ZM1020.7,1522q-7.22,0-7.21,8.73v48.34q0,8.73,7.21,8.73t7.21-8.73v-48.34Q1027.91,1522,1020.7,1522ZM904.6,1328q-2.31,25-4.63,50l27.31-.14a20.8,20.8,0,0,0,11.87-3.55q5.16-3.3,5.5-8.27,1.33-19,2.66-38Zm65.86,226.8q-7.2,0-7.21,8.73v15.69q0,8.61,7.21,8.6t7.22-8.6v-15.69Q977.68,1554.8,970.46,1554.8Zm-105.78-13.92L862.27,1564h9l2.4-23.15ZM734.44,1409l22.82-.58q.91-40.11,1.83-80.18Q746.78,1368.27,734.44,1409Zm0,0,22.82-.58q.91-40.11,1.83-80.18Q746.78,1368.27,734.44,1409Zm130.24,131.92L862.27,1564h9l2.4-23.15ZM904.6,1328q-2.31,25-4.63,50l27.31-.14a20.8,20.8,0,0,0,11.87-3.55q5.16-3.3,5.5-8.27,1.33-19,2.66-38Zm65.86,226.8q-7.2,0-7.21,8.73v15.69q0,8.61,7.21,8.6t7.22-8.6v-15.69Q977.68,1554.8,970.46,1554.8ZM1020.7,1522q-7.22,0-7.21,8.73v48.34q0,8.73,7.21,8.73t7.21-8.73v-48.34Q1027.91,1522,1020.7,1522Zm104.14,13.92-13.66,34.55h13.92v-34.55Zm0,0-13.66,34.55h13.92v-34.55ZM1020.7,1522q-7.22,0-7.21,8.73v48.34q0,8.73,7.21,8.73t7.21-8.73v-48.34Q1027.91,1522,1020.7,1522ZM904.6,1328q-2.31,25-4.63,50l27.31-.14a20.8,20.8,0,0,0,11.87-3.55q5.16-3.3,5.5-8.27,1.33-19,2.66-38Zm65.86,226.8q-7.2,0-7.21,8.73v15.69q0,8.61,7.21,8.6t7.22-8.6v-15.69Q977.68,1554.8,970.46,1554.8Zm-105.78-13.92L862.27,1564h9l2.4-23.15ZM734.44,1409l22.82-.58q.91-40.11,1.83-80.18Q746.78,1368.27,734.44,1409Zm0,0,22.82-.58q.91-40.11,1.83-80.18Q746.78,1368.27,734.44,1409Zm130.24,131.92L862.27,1564h9l2.4-23.15ZM904.6,1328q-2.31,25-4.63,50l27.31-.14a20.8,20.8,0,0,0,11.87-3.55q5.16-3.3,5.5-8.27,1.33-19,2.66-38Zm65.86,226.8q-7.2,0-7.21,8.73v15.69q0,8.61,7.21,8.6t7.22-8.6v-15.69Q977.68,1554.8,970.46,1554.8ZM1020.7,1522q-7.22,0-7.21,8.73v48.34q0,8.73,7.21,8.73t7.21-8.73v-48.34Q1027.91,1522,1020.7,1522Zm104.14,13.92-13.66,34.55h13.92v-34.55Zm0,0-13.66,34.55h13.92v-34.55ZM1020.7,1522q-7.22,0-7.21,8.73v48.34q0,8.73,7.21,8.73t7.21-8.73v-48.34Q1027.91,1522,1020.7,1522ZM904.6,1328q-2.31,25-4.63,50l27.31-.14a20.8,20.8,0,0,0,11.87-3.55q5.16-3.3,5.5-8.27,1.33-19,2.66-38Zm65.86,226.8q-7.2,0-7.21,8.73v15.69q0,8.61,7.21,8.6t7.22-8.6v-15.69Q977.68,1554.8,970.46,1554.8Zm-105.78-13.92L862.27,1564h9l2.4-23.15ZM734.44,1409l22.82-.58q.91-40.11,1.83-80.18Q746.78,1368.27,734.44,1409Zm0,0,22.82-.58q.91-40.11,1.83-80.18Q746.78,1368.27,734.44,1409Zm130.24,131.92L862.27,1564h9l2.4-23.15ZM904.6,1328q-2.31,25-4.63,50l27.31-.14a20.8,20.8,0,0,0,11.87-3.55q5.16-3.3,5.5-8.27,1.33-19,2.66-38Zm65.86,226.8q-7.2,0-7.21,8.73v15.69q0,8.61,7.21,8.6t7.22-8.6v-15.69Q977.68,1554.8,970.46,1554.8ZM1020.7,1522q-7.22,0-7.21,8.73v48.34q0,8.73,7.21,8.73t7.21-8.73v-48.34Q1027.91,1522,1020.7,1522Zm104.14,13.92-13.66,34.55h13.92v-34.55Zm0,0-13.66,34.55h13.92v-34.55ZM1020.7,1522q-7.22,0-7.21,8.73v48.34q0,8.73,7.21,8.73t7.21-8.73v-48.34Q1027.91,1522,1020.7,1522ZM904.6,1328q-2.31,25-4.63,50l27.31-.14a20.8,20.8,0,0,0,11.87-3.55q5.16-3.3,5.5-8.27,1.33-19,2.66-38Zm65.86,226.8q-7.2,0-7.21,8.73v15.69q0,8.61,7.21,8.6t7.22-8.6v-15.69Q977.68,1554.8,970.46,1554.8Zm-105.78-13.92L862.27,1564h9l2.4-23.15ZM734.44,1409l22.82-.58q.91-40.11,1.83-80.18Q746.78,1368.27,734.44,1409Zm0,0,22.82-.58q.91-40.11,1.83-80.18Q746.78,1368.27,734.44,1409Zm130.24,131.92L862.27,1564h9l2.4-23.15ZM904.6,1328q-2.31,25-4.63,50l27.31-.14a20.8,20.8,0,0,0,11.87-3.55q5.16-3.3,5.5-8.27,1.33-19,2.66-38Zm65.86,226.8q-7.2,0-7.21,8.73v15.69q0,8.61,7.21,8.6t7.22-8.6v-15.69Q977.68,1554.8,970.46,1554.8ZM1020.7,1522q-7.22,0-7.21,8.73v48.34q0,8.73,7.21,8.73t7.21-8.73v-48.34Q1027.91,1522,1020.7,1522Zm104.14,13.92-13.66,34.55h13.92v-34.55Zm0,0-13.66,34.55h13.92v-34.55ZM1020.7,1522q-7.22,0-7.21,8.73v48.34q0,8.73,7.21,8.73t7.21-8.73v-48.34Q1027.91,1522,1020.7,1522ZM904.6,1328q-2.31,25-4.63,50l27.31-.14a20.8,20.8,0,0,0,11.87-3.55q5.16-3.3,5.5-8.27,1.33-19,2.66-38Zm65.86,226.8q-7.2,0-7.21,8.73v15.69q0,8.61,7.21,8.6t7.22-8.6v-15.69Q977.68,1554.8,970.46,1554.8Zm-105.78-13.92L862.27,1564h9l2.4-23.15ZM734.44,1409l22.82-.58q.91-40.11,1.83-80.18Q746.78,1368.27,734.44,1409Zm0,0,22.82-.58q.91-40.11,1.83-80.18Q746.78,1368.27,734.44,1409Zm130.24,131.92L862.27,1564h9l2.4-23.15ZM904.6,1328q-2.31,25-4.63,50l27.31-.14a20.8,20.8,0,0,0,11.87-3.55q5.16-3.3,5.5-8.27,1.33-19,2.66-38Zm65.86,226.8q-7.2,0-7.21,8.73v15.69q0,8.61,7.21,8.6t7.22-8.6v-15.69Q977.68,1554.8,970.46,1554.8ZM1020.7,1522q-7.22,0-7.21,8.73v48.34q0,8.73,7.21,8.73t7.21-8.73v-48.34Q1027.91,1522,1020.7,1522Zm104.14,13.92-13.66,34.55h13.92v-34.55Zm0,0-13.66,34.55h13.92v-34.55ZM1020.7,1522q-7.22,0-7.21,8.73v48.34q0,8.73,7.21,8.73t7.21-8.73v-48.34Q1027.91,1522,1020.7,1522ZM904.6,1328q-2.31,25-4.63,50l27.31-.14a20.8,20.8,0,0,0,11.87-3.55q5.16-3.3,5.5-8.27,1.33-19,2.66-38Zm65.86,226.8q-7.2,0-7.21,8.73v15.69q0,8.61,7.21,8.6t7.22-8.6v-15.69Q977.68,1554.8,970.46,1554.8Zm-105.78-13.92L862.27,1564h9l2.4-23.15ZM734.44,1409l22.82-.58q.91-40.11,1.83-80.18Q746.78,1368.27,734.44,1409Zm0,0,22.82-.58q.91-40.11,1.83-80.18Q746.78,1368.27,734.44,1409Zm130.24,131.92L862.27,1564h9l2.4-23.15ZM904.6,1328q-2.31,25-4.63,50l27.31-.14a20.8,20.8,0,0,0,11.87-3.55q5.16-3.3,5.5-8.27,1.33-19,2.66-38Zm65.86,226.8q-7.2,0-7.21,8.73v15.69q0,8.61,7.21,8.6t7.22-8.6v-15.69Q977.68,1554.8,970.46,1554.8ZM1020.7,1522q-7.22,0-7.21,8.73v48.34q0,8.73,7.21,8.73t7.21-8.73v-48.34Q1027.91,1522,1020.7,1522Zm104.14,13.92-13.66,34.55h13.92v-34.55Zm0,0-13.66,34.55h13.92v-34.55ZM1020.7,1522q-7.22,0-7.21,8.73v48.34q0,8.73,7.21,8.73t7.21-8.73v-48.34Q1027.91,1522,1020.7,1522ZM904.6,1328q-2.31,25-4.63,50l27.31-.14a20.8,20.8,0,0,0,11.87-3.55q5.16-3.3,5.5-8.27,1.33-19,2.66-38Zm65.86,226.8q-7.2,0-7.21,8.73v15.69q0,8.61,7.21,8.6t7.22-8.6v-15.69Q977.68,1554.8,970.46,1554.8Zm-105.78-13.92L862.27,1564h9l2.4-23.15ZM734.44,1409l22.82-.58q.91-40.11,1.83-80.18Q746.78,1368.27,734.44,1409Zm0,0,22.82-.58q.91-40.11,1.83-80.18Q746.78,1368.27,734.44,1409Zm130.24,131.92L862.27,1564h9l2.4-23.15ZM904.6,1328q-2.31,25-4.63,50l27.31-.14a20.8,20.8,0,0,0,11.87-3.55q5.16-3.3,5.5-8.27,1.33-19,2.66-38Zm65.86,226.8q-7.2,0-7.21,8.73v15.69q0,8.61,7.21,8.6t7.22-8.6v-15.69Q977.68,1554.8,970.46,1554.8ZM1020.7,1522q-7.22,0-7.21,8.73v48.34q0,8.73,7.21,8.73t7.21-8.73v-48.34Q1027.91,1522,1020.7,1522Zm104.14,13.92-13.66,34.55h13.92v-34.55Zm0,0-13.66,34.55h13.92v-34.55ZM1020.7,1522q-7.22,0-7.21,8.73v48.34q0,8.73,7.21,8.73t7.21-8.73v-48.34Q1027.91,1522,1020.7,1522ZM904.6,1328q-2.31,25-4.63,50l27.31-.14a20.8,20.8,0,0,0,11.87-3.55q5.16-3.3,5.5-8.27,1.33-19,2.66-38Zm65.86,226.8q-7.2,0-7.21,8.73v15.69q0,8.61,7.21,8.6t7.22-8.6v-15.69Q977.68,1554.8,970.46,1554.8Zm-105.78-13.92L862.27,1564h9l2.4-23.15ZM734.44,1409l22.82-.58q.91-40.11,1.83-80.18Q746.78,1368.27,734.44,1409Zm0,0,22.82-.58q.91-40.11,1.83-80.18Q746.78,1368.27,734.44,1409Zm130.24,131.92L862.27,1564h9l2.4-23.15ZM904.6,1328q-2.31,25-4.63,50l27.31-.14a20.8,20.8,0,0,0,11.87-3.55q5.16-3.3,5.5-8.27,1.33-19,2.66-38Zm65.86,226.8q-7.2,0-7.21,8.73v15.69q0,8.61,7.21,8.6t7.22-8.6v-15.69Q977.68,1554.8,970.46,1554.8ZM1020.7,1522q-7.22,0-7.21,8.73v48.34q0,8.73,7.21,8.73t7.21-8.73v-48.34Q1027.91,1522,1020.7,1522Zm104.14,13.92-13.66,34.55h13.92v-34.55Zm0,0-13.66,34.55h13.92v-34.55ZM1020.7,1522q-7.22,0-7.21,8.73v48.34q0,8.73,7.21,8.73t7.21-8.73v-48.34Q1027.91,1522,1020.7,1522ZM904.6,1328q-2.31,25-4.63,50l27.31-.14a20.8,20.8,0,0,0,11.87-3.55q5.16-3.3,5.5-8.27,1.33-19,2.66-38Zm65.86,226.8q-7.2,0-7.21,8.73v15.69q0,8.61,7.21,8.6t7.22-8.6v-15.69Q977.68,1554.8,970.46,1554.8Zm-105.78-13.92L862.27,1564h9l2.4-23.15ZM734.44,1409l22.82-.58q.91-40.11,1.83-80.18Q746.78,1368.27,734.44,1409Zm0,0,22.82-.58q.91-40.11,1.83-80.18Q746.78,1368.27,734.44,1409Zm130.24,131.92L862.27,1564h9l2.4-23.15ZM904.6,1328q-2.31,25-4.63,50l27.31-.14a20.8,20.8,0,0,0,11.87-3.55q5.16-3.3,5.5-8.27,1.33-19,2.66-38Zm65.86,226.8q-7.2,0-7.21,8.73v15.69q0,8.61,7.21,8.6t7.22-8.6v-15.69Q977.68,1554.8,970.46,1554.8ZM1020.7,1522q-7.22,0-7.21,8.73v48.34q0,8.73,7.21,8.73t7.21-8.73v-48.34Q1027.91,1522,1020.7,1522Zm104.14,13.92-13.66,34.55h13.92v-34.55Zm0,0-13.66,34.55h13.92v-34.55ZM1020.7,1522q-7.22,0-7.21,8.73v48.34q0,8.73,7.21,8.73t7.21-8.73v-48.34Q1027.91,1522,1020.7,1522ZM904.6,1328q-2.31,25-4.63,50l27.31-.14a20.8,20.8,0,0,0,11.87-3.55q5.16-3.3,5.5-8.27,1.33-19,2.66-38Zm65.86,226.8q-7.2,0-7.21,8.73v15.69q0,8.61,7.21,8.6t7.22-8.6v-15.69Q977.68,1554.8,970.46,1554.8Zm-105.78-13.92L862.27,1564h9l2.4-23.15ZM734.44,1409l22.82-.58q.91-40.11,1.83-80.18Q746.78,1368.27,734.44,1409Zm0,0,22.82-.58q.91-40.11,1.83-80.18Q746.78,1368.27,734.44,1409Zm130.24,131.92L862.27,1564h9l2.4-23.15ZM904.6,1328q-2.31,25-4.63,50l27.31-.14a20.8,20.8,0,0,0,11.87-3.55q5.16-3.3,5.5-8.27,1.33-19,2.66-38Zm65.86,226.8q-7.2,0-7.21,8.73v15.69q0,8.61,7.21,8.6t7.22-8.6v-15.69Q977.68,1554.8,970.46,1554.8ZM1020.7,1522q-7.22,0-7.21,8.73v48.34q0,8.73,7.21,8.73t7.21-8.73v-48.34Q1027.91,1522,1020.7,1522Zm104.14,13.92-13.66,34.55h13.92v-34.55Zm0,0-13.66,34.55h13.92v-34.55ZM1020.7,1522q-7.22,0-7.21,8.73v48.34q0,8.73,7.21,8.73t7.21-8.73v-48.34Q1027.91,1522,1020.7,1522ZM904.6,1328q-2.31,25-4.63,50l27.31-.14a20.8,20.8,0,0,0,11.87-3.55q5.16-3.3,5.5-8.27,1.33-19,2.66-38Zm65.86,226.8q-7.2,0-7.21,8.73v15.69q0,8.61,7.21,8.6t7.22-8.6v-15.69Q977.68,1554.8,970.46,1554.8Zm-105.78-13.92L862.27,1564h9l2.4-23.15ZM734.44,1409l22.82-.58q.91-40.11,1.83-80.18Q746.78,1368.27,734.44,1409Zm0,0,22.82-.58q.91-40.11,1.83-80.18Q746.78,1368.27,734.44,1409Zm130.24,131.92L862.27,1564h9l2.4-23.15ZM904.6,1328q-2.31,25-4.63,50l27.31-.14a20.8,20.8,0,0,0,11.87-3.55q5.16-3.3,5.5-8.27,1.33-19,2.66-38Zm65.86,226.8q-7.2,0-7.21,8.73v15.69q0,8.61,7.21,8.6t7.22-8.6v-15.69Q977.68,1554.8,970.46,1554.8ZM1020.7,1522q-7.22,0-7.21,8.73v48.34q0,8.73,7.21,8.73t7.21-8.73v-48.34Q1027.91,1522,1020.7,1522Zm104.14,13.92-13.66,34.55h13.92v-34.55Zm0,0-13.66,34.55h13.92v-34.55ZM1020.7,1522q-7.22,0-7.21,8.73v48.34q0,8.73,7.21,8.73t7.21-8.73v-48.34Q1027.91,1522,1020.7,1522ZM904.6,1328q-2.31,25-4.63,50l27.31-.14a20.8,20.8,0,0,0,11.87-3.55q5.16-3.3,5.5-8.27,1.33-19,2.66-38Zm65.86,226.8q-7.2,0-7.21,8.73v15.69q0,8.61,7.21,8.6t7.22-8.6v-15.69Q977.68,1554.8,970.46,1554.8Zm-105.78-13.92L862.27,1564h9l2.4-23.15ZM734.44,1409l22.82-.58q.91-40.11,1.83-80.18Q746.78,1368.27,734.44,1409Zm0,0,22.82-.58q.91-40.11,1.83-80.18Q746.78,1368.27,734.44,1409Zm130.24,131.92L862.27,1564h9l2.4-23.15ZM904.6,1328q-2.31,25-4.63,50l27.31-.14a20.8,20.8,0,0,0,11.87-3.55q5.16-3.3,5.5-8.27,1.33-19,2.66-38Zm65.86,226.8q-7.2,0-7.21,8.73v15.69q0,8.61,7.21,8.6t7.22-8.6v-15.69Q977.68,1554.8,970.46,1554.8ZM1020.7,1522q-7.22,0-7.21,8.73v48.34q0,8.73,7.21,8.73t7.21-8.73v-48.34Q1027.91,1522,1020.7,1522Zm104.14,13.92-13.66,34.55h13.92v-34.55Zm0,0-13.66,34.55h13.92v-34.55ZM1020.7,1522q-7.22,0-7.21,8.73v48.34q0,8.73,7.21,8.73t7.21-8.73v-48.34Q1027.91,1522,1020.7,1522ZM904.6,1328q-2.31,25-4.63,50l27.31-.14a20.8,20.8,0,0,0,11.87-3.55q5.16-3.3,5.5-8.27,1.33-19,2.66-38Zm65.86,226.8q-7.2,0-7.21,8.73v15.69q0,8.61,7.21,8.6t7.22-8.6v-15.69Q977.68,1554.8,970.46,1554.8Zm-105.78-13.92L862.27,1564h9l2.4-23.15ZM734.44,1409l22.82-.58q.91-40.11,1.83-80.18Q746.78,1368.27,734.44,1409Zm0,0,22.82-.58q.91-40.11,1.83-80.18Q746.78,1368.27,734.44,1409Zm130.24,131.92L862.27,1564h9l2.4-23.15ZM904.6,1328q-2.31,25-4.63,50l27.31-.14a20.8,20.8,0,0,0,11.87-3.55q5.16-3.3,5.5-8.27,1.33-19,2.66-38Zm65.86,226.8q-7.2,0-7.21,8.73v15.69q0,8.61,7.21,8.6t7.22-8.6v-15.69Q977.68,1554.8,970.46,1554.8ZM1020.7,1522q-7.22,0-7.21,8.73v48.34q0,8.73,7.21,8.73t7.21-8.73v-48.34Q1027.91,1522,1020.7,1522Zm104.14,13.92-13.66,34.55h13.92v-34.55Zm0,0-13.66,34.55h13.92v-34.55ZM1020.7,1522q-7.22,0-7.21,8.73v48.34q0,8.73,7.21,8.73t7.21-8.73v-48.34Q1027.91,1522,1020.7,1522ZM904.6,1328q-2.31,25-4.63,50l27.31-.14a20.8,20.8,0,0,0,11.87-3.55q5.16-3.3,5.5-8.27,1.33-19,2.66-38Zm65.86,226.8q-7.2,0-7.21,8.73v15.69q0,8.61,7.21,8.6t7.22-8.6v-15.69Q977.68,1554.8,970.46,1554.8Zm-105.78-13.92L862.27,1564h9l2.4-23.15ZM734.44,1409l22.82-.58q.91-40.11,1.83-80.18Q746.78,1368.27,734.44,1409Zm1023.27,193.28-10.31-48.09c-23.1-107.81-47.56-215.06-72.73-318.73l-6.41-26.41-1.64.09-.15-.61-27.54,1.55q-39.89,2.25-56.48,3.06l-26.42,1.37-27,1.26c-8,.39-16,.75-24,1.09V737L1219.83,572.34l-20.14-11.63,4.38,4.1L1101.77,673.9l-41.49-40.8a172.74,172.74,0,0,1-53,15.26c-30.42,3.77-75.87.9-121.19-33.46L787.87,659l-30.09-3.21,13.42-75.23-18,10.41L500.5,736.82l-.25.14v483.89c-1.3-.33-2.67-.67-4.1-1l-.32-.07c-4.23-1-9-2-14.39-2.9-17.85-3-36.5-3.17-54.54-3.35-9.39-.09-19.09-.19-28.56-.68-1.63-.07-3-.11-4.31-.11-17.4,0-34,5.43-49.33,16.14-17,11.85-28.56,27.34-34.34,46-23.39,75.69-46.28,154.09-68,233-8.88,32.21,4.11,52.47,12.64,61.68,11.41,12.24,26.85,18.71,44.67,18.71a83.55,83.55,0,0,0,14.64-1.36c30.4-5.42,61.53-10.51,92.53-15.11q4.43-.66,9-1.77l.07,0A103.73,103.73,0,0,0,426,1567.2c147.16-19.57,248.52-30.81,338.7-37.56l41.17,83.5.14.28h372.49l.34-.5h1.57l53.93-79.18c83.89,7,181.7,17.4,307.6,32.83,15.07,2,29.46,4.11,42.78,6.13l37.19,5.58,0,.14,22.39,3.8c20.7,3.49,41.82,7.29,62.8,11.29l49.07,9.36-.21-1ZM1126.93,657h1.32l1.38,4c.34,1,.62,1.94.82,2.8h0c.2-.84.49-1.75.85-2.8l1.44-4h1.33l.5,8.34h-1l-.21-3.66c-.05-1.17-.12-2.57-.11-3.6h0c-.28,1-.61,2-1,3.16l-1.43,4H1130l-1.32-4c-.38-1.18-.7-2.26-.93-3.24h0c0,1-.08,2.43-.15,3.68l-.21,3.58h-1Zm-7,0h6v.92h-2.47v7.42h-1v-7.42h-2.46ZM685.09,852.72l76.56,37.72L831,833.08l-9.2-94.24a396,396,0,0,1,91.68-36.56l41.27,82.11,83.52-2.21,38.67-84.44a379.44,379.44,0,0,1,89.76,30.06L1161,822.69l71,53L1306.61,833a520,520,0,0,1,64.06,86.74l-53.58,71.69,33.05,88.79,49.66,8.8q-57.36,4.14-115,7.1a332.74,332.74,0,0,0-68.68-136.7c-57.11-70-134.76-105.82-212.12-105.82-65.22,0-131.34,25.42-186.09,77.25-48.74,45.13-81.58,103.41-97,165.36q-33.57-1.71-67.07-3.84L680.57,1011l-56.66-68A534.29,534.29,0,0,1,685.09,852.72ZM1256,1097.55q-32.4,1.5-64.81,2.6a222.86,222.86,0,0,0-41.45-76C1078.25,936,956.67,927.4,875.2,1005.11a222.87,222.87,0,0,0-60.51,95.11q-32.52-1.11-65-2.6c14.25-53.89,43.23-104.42,85.75-143.84,49.46-46.75,109.34-69.69,168.43-69.69,70.11,0,140.38,32.3,191.91,95.46A298.34,298.34,0,0,1,1256,1097.55ZM545.3,1108.1q29.31,2.43,58.63,4.54h0q56,4,112,6.94,14.24.75,28.47,1.41,32,1.48,64,2.61,96.8,3.39,193.62,3.39,77.9,0,155.77-2.2l1.93,0h0q18.73-.54,37.46-1.2,31.89-1.12,63.79-2.62,14.25-.66,28.49-1.41,75.49-3.93,150.91-9.93,8.11-.64,16.22-1.31,7.59,54.8,15.19,109.38Q1237.31,1238,1002.05,1238q-235.08,0-469.77-20.33Q538.79,1163,545.3,1108.1ZM395.4,1304.65q-27.28,92.3-54.4,191.84,29.47-3.71,59-7,6.83-25.89,13.65-51.29-14.47,1.08-28.95,2.24,7.68-28,15.36-55.46,44.11-1.77,88.28-3.2Q473.6,1438.34,458.91,1497c-2.75,11-9.74,20.89-21,30s-23.17,14.56-35.93,16.45q-46.82,7-93.5,15.26c-12.72,2.28-22.48-.06-29.25-7.32s-8.45-17.58-4.94-30.3c22.44-81.45,45-158.57,67.73-232,3.54-11.47,10.76-21,21.62-28.6,10.65-7.45,21.63-10.74,33-10.15q41.64,2.16,83.29,4c11.35.51,20.13,4.55,26.39,12s8.24,16.41,5.48,26.69q-7.32,27.32-14.63,55.09-29.55.36-59.07.78,6.09-21.9,12.19-43.44Q422.83,1305.06,395.4,1304.65Zm245.67,147.13q-3.72,18.35-7.44,36.82-64.83,4.7-129.5,11.26,25.82-108,51.69-209.73,59,1.15,118,2-3.72,17.85-7.43,35.81-37.57,0-75.14,0-5.26,22.33-10.54,44.91,31.95-.75,63.9-1.35-3.84,18.26-7.68,36.64-32.52,1.17-65,2.57-5.3,22.85-10.57,45.94Q601.2,1453.95,641.07,1451.78ZM764.18,1481q-1.83-19-3.65-38-20.38.71-40.75,1.52-8.31,19.65-16.64,39.55-24.63,1.41-49.24,3.08c27.26-66.94,54.51-131.4,81.71-194.23q29.42.35,58.84.62,9.59,93.17,19.2,185.45Q788.9,1479.88,764.18,1481Zm126.94,59.89h-6.45l-2.4,23.15h6.45l-1,9.87h-6.46l-2.65,25.31h-11l2.65-25.31h-9l-2.66,25.31h-11l2.66-25.31h-6.2l1-9.87h6.2l2.41-23.15h-6.33l1-9.87h6.33l2.15-20.38h11L865.69,1531h9l2.16-20.38h11L885.68,1531h6.46Zm41.64,58.33H918.84v-67.57H904.28v-9.87a36.28,36.28,0,0,0,9.56-1,12,12,0,0,0,5.75-3.35,20.44,20.44,0,0,0,3.8-6.77h9.37Zm58.84-21q0,10.62-5.44,16.45t-15.7,5.82q-10.25,0-15.69-5.82t-5.44-16.45V1532.4q0-23,21.26-23,10.13,0,15.44,5.75t5.31,16.52v1.64H978.18v-2.53q0-8.73-7.21-8.73c-2.62,0-4.55.8-5.82,2.4s-1.9,4.43-1.9,8.48v17h.25q3.68-7.71,12.66-7.72,7.59,0,11.51,5.19t3.93,15.06Zm1.36-259q-1.07,23.37-2.12,46.74c-.54,11.9-7,21.38-19.31,28.48,11.67,7,17.27,16.61,16.72,28.66l-2.4,52.84q-24.45,0-48.91.3,1.86-26.51,3.71-53,.35-5-4.44-8.45a19.34,19.34,0,0,0-11.58-3.32q-13.89.1-27.79.25-3,32.57-6.05,65.2-24.36.48-48.73,1.19,10.71-92.38,21.38-184,48.93.29,97.87.36c8.89,0,16.39,2.39,22.55,7.14Q993.42,1308.93,993,1319.2Zm48.87,259q0,10.62-5.44,16.45t-15.69,5.82q-10.25,0-15.69-5.82t-5.44-16.45v-46.57q0-10.64,5.44-16.45t15.69-5.82q10.24,0,15.69,5.82t5.44,16.45Zm50.49,0q0,10.76-5.31,16.51t-15.44,5.76q-10.12,0-15.44-5.76t-5.31-16.51v-7H1064v8q0,8.61,7.21,8.6t7.21-8.6v-19.87q0-8.73-7.21-8.73t-7.21,8.73v.76h-13.16l2.53-49.48h36.7v12.66h-24.3l-1.14,21.13h.25q3.93-6.45,12-6.45,7.59,0,11.51,5.18t3.92,15.06Zm53.28,4.93H1139v16.07H1125.1v-16.07h-26.58v-12.65l25.31-59.86H1139v59.86h6.58ZM1108,1328q1.29,74.61,2.6,149.26-24.29-.55-48.59-.88l1-148.37h-44.12q.52-16.79,1-33.55,65.33-.09,130.63-.56.69,17,1.39,34.08Zm73.33,151.35q-4.85-93-9.65-185.6,59.05-.49,118.11-1.29,2,17.73,4,35.5l-75.19,0q1.56,20.83,3.13,41.7,32,.39,64,.89,1.88,17.81,3.74,35.67-32.53-1-65.09-1.69,1.56,21,3.13,42,39.93,1.41,79.81,3.34,2,18,4,36Q1246.25,1481.71,1181.28,1479.34Zm294,11.52c-6,5-13.91,7-23.64,6.05q-35.67-3.39-71.38-6.19a49.72,49.72,0,0,1-26.29-9.84c-7.74-5.77-12.06-12.33-13-19.79q-8.88-71.83-17.74-142.59c-.92-7.34,1.55-13.65,7.39-19s13.15-7.86,22-8q32.54-.52,65-1.14a39.22,39.22,0,0,1,24.3,7.61c7.58,5.44,12.08,12.11,13.49,20q3.72,20.85,7.45,41.88-22.9-.43-45.82-.82-2.51-15.54-5-31l-42.65,0q9,62.63,18.1,126.32,22.62,1.41,45.21,3-2.5-15.87-5-31.66,23.61,1.25,47.21,2.65,3.73,21.38,7.46,43C1483.91,1479.3,1481.53,1485.88,1475.33,1490.86Zm174.51,63q-13.29-64.73-26.65-127-28.77-2.09-57.56-3.94,12,59.68,24,121.3-31.85-4.79-63.74-9-25.92-144.3-52-279.64,28.32-1.2,56.65-2.52,12.08,57,24.12,115.83,28.17.78,56.33,1.67-13.39-61.2-26.84-120.14,28.32-1.46,56.64-3.06c24.34,100.29,48.55,205.88,72.53,317.85Q1681.62,1559.28,1649.84,1553.9Zm-538.66,16.59h13.92v-34.55h-.26ZM1020.7,1522q-7.22,0-7.21,8.73v48.34q0,8.73,7.21,8.73t7.21-8.73v-48.34Q1027.91,1522,1020.7,1522Zm-50.24,32.78q-7.2,0-7.21,8.73v15.69q0,8.61,7.21,8.6t7.22-8.6v-15.69Q977.68,1554.8,970.46,1554.8ZM900,1378l27.31-.14a20.8,20.8,0,0,0,11.87-3.55q5.16-3.3,5.5-8.27,1.33-19,2.66-38H904.6Q902.29,1353,900,1378ZM862.27,1564h9l2.4-23.15h-9Zm-105-155.65q.91-40.11,1.83-80.18-12.32,40.07-24.65,80.76Zm-22.82.58,22.82-.58q.91-40.11,1.83-80.18Q746.78,1368.27,734.44,1409Zm130.24,131.92L862.27,1564h9l2.4-23.15Zm105.78,13.92q-7.2,0-7.21,8.73v15.69q0,8.61,7.21,8.6t7.22-8.6v-15.69Q977.68,1554.8,970.46,1554.8ZM904.6,1328q-2.31,25-4.63,50l27.31-.14a20.8,20.8,0,0,0,11.87-3.55q5.16-3.3,5.5-8.27,1.33-19,2.66-38Zm116.1,194q-7.22,0-7.21,8.73v48.34q0,8.73,7.21,8.73t7.21-8.73v-48.34Q1027.91,1522,1020.7,1522Zm104.14,13.92-13.66,34.55h13.92v-34.55Zm0,0-13.66,34.55h13.92v-34.55Zm-70.45-906.72-.85.41q1.14-.51,2.25-1ZM1020.7,1522q-7.22,0-7.21,8.73v48.34q0,8.73,7.21,8.73t7.21-8.73v-48.34Q1027.91,1522,1020.7,1522Zm-50.24,32.78q-7.2,0-7.21,8.73v15.69q0,8.61,7.21,8.6t7.22-8.6v-15.69Q977.68,1554.8,970.46,1554.8ZM946.27,638.67c1.85.47,3.73.9,5.62,1.3C950,639.57,948.13,639.13,946.27,638.67ZM904.6,1328q-2.31,25-4.63,50l27.31-.14a20.8,20.8,0,0,0,11.87-3.55q5.16-3.3,5.5-8.27,1.33-19,2.66-38Zm-39.92,212.88L862.27,1564h9l2.4-23.15ZM734.44,1409l22.82-.58q.91-40.11,1.83-80.18Q746.78,1368.27,734.44,1409Zm0,0,22.82-.58q.91-40.11,1.83-80.18Q746.78,1368.27,734.44,1409Zm130.24,131.92L862.27,1564h9l2.4-23.15Zm105.78,13.92q-7.2,0-7.21,8.73v15.69q0,8.61,7.21,8.6t7.22-8.6v-15.69Q977.68,1554.8,970.46,1554.8ZM904.6,1328q-2.31,25-4.63,50l27.31-.14a20.8,20.8,0,0,0,11.87-3.55q5.16-3.3,5.5-8.27,1.33-19,2.66-38Zm116.1,194q-7.22,0-7.21,8.73v48.34q0,8.73,7.21,8.73t7.21-8.73v-48.34Q1027.91,1522,1020.7,1522Zm104.14,13.92-13.66,34.55h13.92v-34.55Zm0,0-13.66,34.55h13.92v-34.55ZM1020.7,1522q-7.22,0-7.21,8.73v48.34q0,8.73,7.21,8.73t7.21-8.73v-48.34Q1027.91,1522,1020.7,1522Zm-50.24,32.78q-7.2,0-7.21,8.73v15.69q0,8.61,7.21,8.6t7.22-8.6v-15.69Q977.68,1554.8,970.46,1554.8ZM904.6,1328q-2.31,25-4.63,50l27.31-.14a20.8,20.8,0,0,0,11.87-3.55q5.16-3.3,5.5-8.27,1.33-19,2.66-38Zm-39.92,212.88L862.27,1564h9l2.4-23.15ZM734.44,1409l22.82-.58q.91-40.11,1.83-80.18Q746.78,1368.27,734.44,1409Zm0,0,22.82-.58q.91-40.11,1.83-80.18Q746.78,1368.27,734.44,1409Zm130.24,131.92L862.27,1564h9l2.4-23.15Zm105.78,13.92q-7.2,0-7.21,8.73v15.69q0,8.61,7.21,8.6t7.22-8.6v-15.69Q977.68,1554.8,970.46,1554.8ZM904.6,1328q-2.31,25-4.63,50l27.31-.14a20.8,20.8,0,0,0,11.87-3.55q5.16-3.3,5.5-8.27,1.33-19,2.66-38Zm116.1,194q-7.22,0-7.21,8.73v48.34q0,8.73,7.21,8.73t7.21-8.73v-48.34Q1027.91,1522,1020.7,1522Zm104.14,13.92-13.66,34.55h13.92v-34.55Zm0,0-13.66,34.55h13.92v-34.55ZM1020.7,1522q-7.22,0-7.21,8.73v48.34q0,8.73,7.21,8.73t7.21-8.73v-48.34Q1027.91,1522,1020.7,1522Zm-50.24,32.78q-7.2,0-7.21,8.73v15.69q0,8.61,7.21,8.6t7.22-8.6v-15.69Q977.68,1554.8,970.46,1554.8ZM904.6,1328q-2.31,25-4.63,50l27.31-.14a20.8,20.8,0,0,0,11.87-3.55q5.16-3.3,5.5-8.27,1.33-19,2.66-38Zm-39.92,212.88L862.27,1564h9l2.4-23.15ZM734.44,1409l22.82-.58q.91-40.11,1.83-80.18Q746.78,1368.27,734.44,1409Zm0,0,22.82-.58q.91-40.11,1.83-80.18Q746.78,1368.27,734.44,1409Zm130.24,131.92L862.27,1564h9l2.4-23.15Zm105.78,13.92q-7.2,0-7.21,8.73v15.69q0,8.61,7.21,8.6t7.22-8.6v-15.69Q977.68,1554.8,970.46,1554.8ZM904.6,1328q-2.31,25-4.63,50l27.31-.14a20.8,20.8,0,0,0,11.87-3.55q5.16-3.3,5.5-8.27,1.33-19,2.66-38Zm116.1,194q-7.22,0-7.21,8.73v48.34q0,8.73,7.21,8.73t7.21-8.73v-48.34Q1027.91,1522,1020.7,1522Zm104.14,13.92-13.66,34.55h13.92v-34.55Zm0,0-13.66,34.55h13.92v-34.55ZM1020.7,1522q-7.22,0-7.21,8.73v48.34q0,8.73,7.21,8.73t7.21-8.73v-48.34Q1027.91,1522,1020.7,1522Zm-50.24,32.78q-7.2,0-7.21,8.73v15.69q0,8.61,7.21,8.6t7.22-8.6v-15.69Q977.68,1554.8,970.46,1554.8ZM904.6,1328q-2.31,25-4.63,50l27.31-.14a20.8,20.8,0,0,0,11.87-3.55q5.16-3.3,5.5-8.27,1.33-19,2.66-38Zm-39.92,212.88L862.27,1564h9l2.4-23.15ZM734.44,1409l22.82-.58q.91-40.11,1.83-80.18Q746.78,1368.27,734.44,1409Zm0,0,22.82-.58q.91-40.11,1.83-80.18Q746.78,1368.27,734.44,1409Zm130.24,131.92L862.27,1564h9l2.4-23.15Zm105.78,13.92q-7.2,0-7.21,8.73v15.69q0,8.61,7.21,8.6t7.22-8.6v-15.69Q977.68,1554.8,970.46,1554.8ZM904.6,1328q-2.31,25-4.63,50l27.31-.14a20.8,20.8,0,0,0,11.87-3.55q5.16-3.3,5.5-8.27,1.33-19,2.66-38Zm116.1,194q-7.22,0-7.21,8.73v48.34q0,8.73,7.21,8.73t7.21-8.73v-48.34Q1027.91,1522,1020.7,1522Zm104.14,13.92-13.66,34.55h13.92v-34.55Zm0,0-13.66,34.55h13.92v-34.55ZM1020.7,1522q-7.22,0-7.21,8.73v48.34q0,8.73,7.21,8.73t7.21-8.73v-48.34Q1027.91,1522,1020.7,1522Zm-50.24,32.78q-7.2,0-7.21,8.73v15.69q0,8.61,7.21,8.6t7.22-8.6v-15.69Q977.68,1554.8,970.46,1554.8ZM904.6,1328q-2.31,25-4.63,50l27.31-.14a20.8,20.8,0,0,0,11.87-3.55q5.16-3.3,5.5-8.27,1.33-19,2.66-38Zm-39.92,212.88L862.27,1564h9l2.4-23.15ZM734.44,1409l22.82-.58q.91-40.11,1.83-80.18Q746.78,1368.27,734.44,1409Zm0,0,22.82-.58q.91-40.11,1.83-80.18Q746.78,1368.27,734.44,1409Zm130.24,131.92L862.27,1564h9l2.4-23.15Zm105.78,13.92q-7.2,0-7.21,8.73v15.69q0,8.61,7.21,8.6t7.22-8.6v-15.69Q977.68,1554.8,970.46,1554.8ZM904.6,1328q-2.31,25-4.63,50l27.31-.14a20.8,20.8,0,0,0,11.87-3.55q5.16-3.3,5.5-8.27,1.33-19,2.66-38Zm116.1,194q-7.22,0-7.21,8.73v48.34q0,8.73,7.21,8.73t7.21-8.73v-48.34Q1027.91,1522,1020.7,1522Zm104.14,13.92-13.66,34.55h13.92v-34.55Zm0,0-13.66,34.55h13.92v-34.55ZM1020.7,1522q-7.22,0-7.21,8.73v48.34q0,8.73,7.21,8.73t7.21-8.73v-48.34Q1027.91,1522,1020.7,1522Zm-50.24,32.78q-7.2,0-7.21,8.73v15.69q0,8.61,7.21,8.6t7.22-8.6v-15.69Q977.68,1554.8,970.46,1554.8ZM904.6,1328q-2.31,25-4.63,50l27.31-.14a20.8,20.8,0,0,0,11.87-3.55q5.16-3.3,5.5-8.27,1.33-19,2.66-38Zm-39.92,212.88L862.27,1564h9l2.4-23.15ZM734.44,1409l22.82-.58q.91-40.11,1.83-80.18Q746.78,1368.27,734.44,1409Zm0,0,22.82-.58q.91-40.11,1.83-80.18Q746.78,1368.27,734.44,1409Zm130.24,131.92L862.27,1564h9l2.4-23.15Zm105.78,13.92q-7.2,0-7.21,8.73v15.69q0,8.61,7.21,8.6t7.22-8.6v-15.69Q977.68,1554.8,970.46,1554.8ZM904.6,1328q-2.31,25-4.63,50l27.31-.14a20.8,20.8,0,0,0,11.87-3.55q5.16-3.3,5.5-8.27,1.33-19,2.66-38Zm116.1,194q-7.22,0-7.21,8.73v48.34q0,8.73,7.21,8.73t7.21-8.73v-48.34Q1027.91,1522,1020.7,1522Zm104.14,13.92-13.66,34.55h13.92v-34.55Zm0,0-13.66,34.55h13.92v-34.55ZM1020.7,1522q-7.22,0-7.21,8.73v48.34q0,8.73,7.21,8.73t7.21-8.73v-48.34Q1027.91,1522,1020.7,1522Zm-50.24,32.78q-7.2,0-7.21,8.73v15.69q0,8.61,7.21,8.6t7.22-8.6v-15.69Q977.68,1554.8,970.46,1554.8ZM904.6,1328q-2.31,25-4.63,50l27.31-.14a20.8,20.8,0,0,0,11.87-3.55q5.16-3.3,5.5-8.27,1.33-19,2.66-38Zm-39.92,212.88L862.27,1564h9l2.4-23.15ZM734.44,1409l22.82-.58q.91-40.11,1.83-80.18Q746.78,1368.27,734.44,1409Zm0,0,22.82-.58q.91-40.11,1.83-80.18Q746.78,1368.27,734.44,1409Zm130.24,131.92L862.27,1564h9l2.4-23.15Zm105.78,13.92q-7.2,0-7.21,8.73v15.69q0,8.61,7.21,8.6t7.22-8.6v-15.69Q977.68,1554.8,970.46,1554.8ZM904.6,1328q-2.31,25-4.63,50l27.31-.14a20.8,20.8,0,0,0,11.87-3.55q5.16-3.3,5.5-8.27,1.33-19,2.66-38Zm116.1,194q-7.22,0-7.21,8.73v48.34q0,8.73,7.21,8.73t7.21-8.73v-48.34Q1027.91,1522,1020.7,1522Zm104.14,13.92-13.66,34.55h13.92v-34.55Zm0,0-13.66,34.55h13.92v-34.55ZM1020.7,1522q-7.22,0-7.21,8.73v48.34q0,8.73,7.21,8.73t7.21-8.73v-48.34Q1027.91,1522,1020.7,1522Zm-50.24,32.78q-7.2,0-7.21,8.73v15.69q0,8.61,7.21,8.6t7.22-8.6v-15.69Q977.68,1554.8,970.46,1554.8ZM904.6,1328q-2.31,25-4.63,50l27.31-.14a20.8,20.8,0,0,0,11.87-3.55q5.16-3.3,5.5-8.27,1.33-19,2.66-38Zm-39.92,212.88L862.27,1564h9l2.4-23.15ZM734.44,1409l22.82-.58q.91-40.11,1.83-80.18Q746.78,1368.27,734.44,1409Zm0,0,22.82-.58q.91-40.11,1.83-80.18Q746.78,1368.27,734.44,1409Zm130.24,131.92L862.27,1564h9l2.4-23.15Zm105.78,13.92q-7.2,0-7.21,8.73v15.69q0,8.61,7.21,8.6t7.22-8.6v-15.69Q977.68,1554.8,970.46,1554.8ZM904.6,1328q-2.31,25-4.63,50l27.31-.14a20.8,20.8,0,0,0,11.87-3.55q5.16-3.3,5.5-8.27,1.33-19,2.66-38Zm116.1,194q-7.22,0-7.21,8.73v48.34q0,8.73,7.21,8.73t7.21-8.73v-48.34Q1027.91,1522,1020.7,1522Zm104.14,13.92-13.66,34.55h13.92v-34.55Zm0,0-13.66,34.55h13.92v-34.55ZM1020.7,1522q-7.22,0-7.21,8.73v48.34q0,8.73,7.21,8.73t7.21-8.73v-48.34Q1027.91,1522,1020.7,1522Zm-50.24,32.78q-7.2,0-7.21,8.73v15.69q0,8.61,7.21,8.6t7.22-8.6v-15.69Q977.68,1554.8,970.46,1554.8ZM904.6,1328q-2.31,25-4.63,50l27.31-.14a20.8,20.8,0,0,0,11.87-3.55q5.16-3.3,5.5-8.27,1.33-19,2.66-38Zm-39.92,212.88L862.27,1564h9l2.4-23.15ZM734.44,1409l22.82-.58q.91-40.11,1.83-80.18Q746.78,1368.27,734.44,1409Zm0,0,22.82-.58q.91-40.11,1.83-80.18Q746.78,1368.27,734.44,1409Zm130.24,131.92L862.27,1564h9l2.4-23.15Zm105.78,13.92q-7.2,0-7.21,8.73v15.69q0,8.61,7.21,8.6t7.22-8.6v-15.69Q977.68,1554.8,970.46,1554.8ZM904.6,1328q-2.31,25-4.63,50l27.31-.14a20.8,20.8,0,0,0,11.87-3.55q5.16-3.3,5.5-8.27,1.33-19,2.66-38Zm116.1,194q-7.22,0-7.21,8.73v48.34q0,8.73,7.21,8.73t7.21-8.73v-48.34Q1027.91,1522,1020.7,1522Zm104.14,13.92-13.66,34.55h13.92v-34.55Zm0,0-13.66,34.55h13.92v-34.55ZM1020.7,1522q-7.22,0-7.21,8.73v48.34q0,8.73,7.21,8.73t7.21-8.73v-48.34Q1027.91,1522,1020.7,1522Zm-50.24,32.78q-7.2,0-7.21,8.73v15.69q0,8.61,7.21,8.6t7.22-8.6v-15.69Q977.68,1554.8,970.46,1554.8ZM904.6,1328q-2.31,25-4.63,50l27.31-.14a20.8,20.8,0,0,0,11.87-3.55q5.16-3.3,5.5-8.27,1.33-19,2.66-38Zm-39.92,212.88L862.27,1564h9l2.4-23.15ZM734.44,1409l22.82-.58q.91-40.11,1.83-80.18Q746.78,1368.27,734.44,1409Zm0,0,22.82-.58q.91-40.11,1.83-80.18Q746.78,1368.27,734.44,1409Zm130.24,131.92L862.27,1564h9l2.4-23.15Zm105.78,13.92q-7.2,0-7.21,8.73v15.69q0,8.61,7.21,8.6t7.22-8.6v-15.69Q977.68,1554.8,970.46,1554.8ZM904.6,1328q-2.31,25-4.63,50l27.31-.14a20.8,20.8,0,0,0,11.87-3.55q5.16-3.3,5.5-8.27,1.33-19,2.66-38Zm116.1,194q-7.22,0-7.21,8.73v48.34q0,8.73,7.21,8.73t7.21-8.73v-48.34Q1027.91,1522,1020.7,1522Zm104.14,13.92-13.66,34.55h13.92v-34.55Zm0,0-13.66,34.55h13.92v-34.55ZM1020.7,1522q-7.22,0-7.21,8.73v48.34q0,8.73,7.21,8.73t7.21-8.73v-48.34Q1027.91,1522,1020.7,1522Zm-50.24,32.78q-7.2,0-7.21,8.73v15.69q0,8.61,7.21,8.6t7.22-8.6v-15.69Q977.68,1554.8,970.46,1554.8ZM904.6,1328q-2.31,25-4.63,50l27.31-.14a20.8,20.8,0,0,0,11.87-3.55q5.16-3.3,5.5-8.27,1.33-19,2.66-38Zm-39.92,212.88L862.27,1564h9l2.4-23.15ZM734.44,1409l22.82-.58q.91-40.11,1.83-80.18Q746.78,1368.27,734.44,1409Zm0,0,22.82-.58q.91-40.11,1.83-80.18Q746.78,1368.27,734.44,1409Zm130.24,131.92L862.27,1564h9l2.4-23.15Zm105.78,13.92q-7.2,0-7.21,8.73v15.69q0,8.61,7.21,8.6t7.22-8.6v-15.69Q977.68,1554.8,970.46,1554.8ZM904.6,1328q-2.31,25-4.63,50l27.31-.14a20.8,20.8,0,0,0,11.87-3.55q5.16-3.3,5.5-8.27,1.33-19,2.66-38Zm116.1,194q-7.22,0-7.21,8.73v48.34q0,8.73,7.21,8.73t7.21-8.73v-48.34Q1027.91,1522,1020.7,1522Zm104.14,13.92-13.66,34.55h13.92v-34.55Zm0,0-13.66,34.55h13.92v-34.55ZM1020.7,1522q-7.22,0-7.21,8.73v48.34q0,8.73,7.21,8.73t7.21-8.73v-48.34Q1027.91,1522,1020.7,1522Zm-50.24,32.78q-7.2,0-7.21,8.73v15.69q0,8.61,7.21,8.6t7.22-8.6v-15.69Q977.68,1554.8,970.46,1554.8ZM904.6,1328q-2.31,25-4.63,50l27.31-.14a20.8,20.8,0,0,0,11.87-3.55q5.16-3.3,5.5-8.27,1.33-19,2.66-38Zm-39.92,212.88L862.27,1564h9l2.4-23.15ZM734.44,1409l22.82-.58q.91-40.11,1.83-80.18Q746.78,1368.27,734.44,1409Zm0,0,22.82-.58q.91-40.11,1.83-80.18Q746.78,1368.27,734.44,1409Zm130.24,131.92L862.27,1564h9l2.4-23.15Zm105.78,13.92q-7.2,0-7.21,8.73v15.69q0,8.61,7.21,8.6t7.22-8.6v-15.69Q977.68,1554.8,970.46,1554.8ZM904.6,1328q-2.31,25-4.63,50l27.31-.14a20.8,20.8,0,0,0,11.87-3.55q5.16-3.3,5.5-8.27,1.33-19,2.66-38Zm116.1,194q-7.22,0-7.21,8.73v48.34q0,8.73,7.21,8.73t7.21-8.73v-48.34Q1027.91,1522,1020.7,1522Zm104.14,13.92-13.66,34.55h13.92v-34.55Zm0,0-13.66,34.55h13.92v-34.55ZM1020.7,1522q-7.22,0-7.21,8.73v48.34q0,8.73,7.21,8.73t7.21-8.73v-48.34Q1027.91,1522,1020.7,1522Zm-50.24,32.78q-7.2,0-7.21,8.73v15.69q0,8.61,7.21,8.6t7.22-8.6v-15.69Q977.68,1554.8,970.46,1554.8ZM904.6,1328q-2.31,25-4.63,50l27.31-.14a20.8,20.8,0,0,0,11.87-3.55q5.16-3.3,5.5-8.27,1.33-19,2.66-38Zm-39.92,212.88L862.27,1564h9l2.4-23.15ZM734.44,1409l22.82-.58q.91-40.11,1.83-80.18Q746.78,1368.27,734.44,1409Zm0,0,22.82-.58q.91-40.11,1.83-80.18Q746.78,1368.27,734.44,1409Zm130.24,131.92L862.27,1564h9l2.4-23.15Zm105.78,13.92q-7.2,0-7.21,8.73v15.69q0,8.61,7.21,8.6t7.22-8.6v-15.69Q977.68,1554.8,970.46,1554.8ZM904.6,1328q-2.31,25-4.63,50l27.31-.14a20.8,20.8,0,0,0,11.87-3.55q5.16-3.3,5.5-8.27,1.33-19,2.66-38Zm116.1,194q-7.22,0-7.21,8.73v48.34q0,8.73,7.21,8.73t7.21-8.73v-48.34Q1027.91,1522,1020.7,1522Zm0,0q-7.22,0-7.21,8.73v48.34q0,8.73,7.21,8.73t7.21-8.73v-48.34Q1027.91,1522,1020.7,1522Zm-50.24,32.78q-7.2,0-7.21,8.73v15.69q0,8.61,7.21,8.6t7.22-8.6v-15.69Q977.68,1554.8,970.46,1554.8ZM904.6,1328q-2.31,25-4.63,50l27.31-.14a20.8,20.8,0,0,0,11.87-3.55q5.16-3.3,5.5-8.27,1.33-19,2.66-38Zm-39.92,212.88L862.27,1564h9l2.4-23.15ZM734.44,1409l22.82-.58q.91-40.11,1.83-80.18Q746.78,1368.27,734.44,1409Zm0,0,22.82-.58q.91-40.11,1.83-80.18Q746.78,1368.27,734.44,1409Zm130.24,131.92L862.27,1564h9l2.4-23.15Zm105.78,13.92q-7.2,0-7.21,8.73v15.69q0,8.61,7.21,8.6t7.22-8.6v-15.69Q977.68,1554.8,970.46,1554.8ZM904.6,1328q-2.31,25-4.63,50l27.31-.14a20.8,20.8,0,0,0,11.87-3.55q5.16-3.3,5.5-8.27,1.33-19,2.66-38Zm65.86,226.8q-7.2,0-7.21,8.73v15.69q0,8.61,7.21,8.6t7.22-8.6v-15.69Q977.68,1554.8,970.46,1554.8ZM904.6,1328q-2.31,25-4.63,50l27.31-.14a20.8,20.8,0,0,0,11.87-3.55q5.16-3.3,5.5-8.27,1.33-19,2.66-38Zm-39.92,212.88L862.27,1564h9l2.4-23.15ZM734.44,1409l22.82-.58q.91-40.11,1.83-80.18Q746.78,1368.27,734.44,1409Zm0,0,22.82-.58q.91-40.11,1.83-80.18Q746.78,1368.27,734.44,1409Zm130.24,131.92L862.27,1564h9l2.4-23.15ZM904.6,1328q-2.31,25-4.63,50l27.31-.14a20.8,20.8,0,0,0,11.87-3.55q5.16-3.3,5.5-8.27,1.33-19,2.66-38Zm0,0q-2.31,25-4.63,50l27.31-.14a20.8,20.8,0,0,0,11.87-3.55q5.16-3.3,5.5-8.27,1.33-19,2.66-38Zm-39.92,212.88L862.27,1564h9l2.4-23.15ZM734.44,1409l22.82-.58q.91-40.11,1.83-80.18Q746.78,1368.27,734.44,1409Zm0,0,22.82-.58q.91-40.11,1.83-80.18Q746.78,1368.27,734.44,1409Zm170.16-81q-2.31,25-4.63,50l27.31-.14a20.8,20.8,0,0,0,11.87-3.55q5.16-3.3,5.5-8.27,1.33-19,2.66-38Zm0,0q-2.31,25-4.63,50l27.31-.14a20.8,20.8,0,0,0,11.87-3.55q5.16-3.3,5.5-8.27,1.33-19,2.66-38Zm-170.16,81,22.82-.58q.91-40.11,1.83-80.18Q746.78,1368.27,734.44,1409Zm0,0,22.82-.58q.91-40.11,1.83-80.18Q746.78,1368.27,734.44,1409Zm170.16-81q-2.31,25-4.63,50l27.31-.14a20.8,20.8,0,0,0,11.87-3.55q5.16-3.3,5.5-8.27,1.33-19,2.66-38Zm0,0q-2.31,25-4.63,50l27.31-.14a20.8,20.8,0,0,0,11.87-3.55q5.16-3.3,5.5-8.27,1.33-19,2.66-38Zm-170.16,81,22.82-.58q.91-40.11,1.83-80.18Q746.78,1368.27,734.44,1409Zm0,0,22.82-.58q.91-40.11,1.83-80.18Q746.78,1368.27,734.44,1409Zm0,0,22.82-.58q.91-40.11,1.83-80.18Q746.78,1368.27,734.44,1409Z" transform="translate(-199.96 -346.22)"/><g id="textos"><path class="cls-2" d="M511.77,1293q-7.32,27.32-14.63,55.09-29.55.36-59.07.78,6.09-21.9,12.19-43.44-27.43-.37-54.86-.78-27.28,92.3-54.4,191.84,29.47-3.71,59-7,6.83-25.89,13.65-51.29-14.47,1.08-28.95,2.24,7.68-28,15.36-55.46,44.11-1.77,88.28-3.2Q473.6,1438.34,458.91,1497c-2.75,11-9.74,20.89-21,30s-23.17,14.56-35.93,16.45q-46.82,7-93.5,15.26c-12.72,2.28-22.48-.06-29.25-7.32s-8.45-17.58-4.94-30.3c22.44-81.45,45-158.57,67.73-232,3.54-11.47,10.76-21,21.62-28.6,10.65-7.45,21.63-10.74,33-10.15q41.64,2.16,83.29,4c11.35.51,20.13,4.55,26.39,12S514.53,1282.72,511.77,1293Z" transform="translate(-199.96 -346.22)"/><path class="cls-2" d="M591.29,1328q-5.26,22.33-10.54,44.91,31.95-.75,63.9-1.35-3.84,18.26-7.68,36.64-32.52,1.17-65,2.57-5.3,22.85-10.57,45.94,39.81-2.73,79.68-4.9-3.72,18.35-7.44,36.82-64.83,4.7-129.5,11.26,25.82-108,51.69-209.73,59,1.15,118,2-3.72,17.85-7.43,35.81Q628.86,1328,591.29,1328Z" transform="translate(-199.96 -346.22)"/><path class="cls-2" d="M794.45,1293.57q-29.41-.27-58.84-.62c-27.2,62.83-54.45,127.29-81.71,194.23q24.61-1.67,49.24-3.08,8.33-19.9,16.64-39.55,20.37-.83,40.75-1.52,1.82,19,3.65,38,24.74-1.11,49.47-2Q804,1386.73,794.45,1293.57Zm-37.19,114.81-22.82.58q12.33-40.71,24.65-80.76Q758.18,1368.27,757.26,1408.38Z" transform="translate(-199.96 -346.22)"/><path class="cls-2" d="M983.86,1301.59c-6.16-4.75-13.66-7.12-22.55-7.14q-48.93-.08-97.87-.36-10.66,91.65-21.38,184,24.36-.72,48.73-1.19,3-32.62,6.05-65.2,13.9-.15,27.79-.25a19.34,19.34,0,0,1,11.58,3.32q4.78,3.48,4.44,8.45-1.85,26.49-3.71,53,24.45-.27,48.91-.3l2.4-52.84c.55-12-5-21.61-16.72-28.66,12.36-7.1,18.77-16.58,19.31-28.48q1.06-23.37,2.12-46.74Q993.41,1308.92,983.86,1301.59ZM944.65,1366q-.35,5-5.5,8.27a20.8,20.8,0,0,1-11.87,3.55L900,1378q2.32-25,4.63-50h42.71Q946,1347,944.65,1366Z" transform="translate(-199.96 -346.22)"/><path class="cls-2" d="M1108,1328q1.29,74.61,2.6,149.26-24.29-.55-48.59-.88l1-148.37h-44.12q.52-16.79,1-33.55,65.33-.09,130.63-.56.69,17,1.39,34.08Z" transform="translate(-199.96 -346.22)"/><path class="cls-2" d="M1311.14,1485.82q-64.89-4.11-129.86-6.48-4.85-93-9.65-185.6,59.05-.49,118.11-1.29,2,17.73,4,35.5l-75.19,0q1.56,20.83,3.13,41.7,32,.39,64,.89,1.88,17.81,3.74,35.67-32.53-1-65.09-1.69,1.56,21,3.13,42,39.93,1.41,79.81,3.34Q1309.16,1467.81,1311.14,1485.82Z" transform="translate(-199.96 -346.22)"/><path class="cls-2" d="M1475.33,1490.86c-6,5-13.91,7-23.64,6.05q-35.67-3.39-71.38-6.19a49.72,49.72,0,0,1-26.29-9.84c-7.74-5.77-12.06-12.33-13-19.79q-8.88-71.83-17.74-142.59c-.92-7.34,1.55-13.65,7.39-19s13.15-7.86,22-8q32.54-.52,65-1.14a39.22,39.22,0,0,1,24.3,7.61c7.58,5.44,12.08,12.11,13.49,20q3.72,20.85,7.45,41.88-22.9-.43-45.82-.82-2.51-15.54-5-31l-42.65,0q9,62.63,18.1,126.32,22.62,1.41,45.21,3-2.5-15.87-5-31.66,23.61,1.25,47.21,2.65,3.73,21.38,7.46,43C1483.91,1479.3,1481.53,1485.88,1475.33,1490.86Z" transform="translate(-199.96 -346.22)"/><path class="cls-2" d="M1713.33,1565.32q-31.71-6-63.49-11.42-13.29-64.73-26.65-127-28.77-2.09-57.56-3.94,12,59.68,24,121.3-31.85-4.79-63.74-9-25.92-144.3-52-279.64,28.32-1.2,56.65-2.52,12.08,57,24.12,115.83,28.17.78,56.33,1.67-13.39-61.2-26.84-120.14,28.32-1.46,56.64-3.06C1665.14,1347.76,1689.35,1453.35,1713.33,1565.32Z" transform="translate(-199.96 -346.22)"/><path class="cls-2" d="M891.12,1540.88l1-9.87h-6.46l2.15-20.38h-11L874.67,1531h-9l2.15-20.38h-11L854.68,1531h-6.33l-1,9.87h6.33L851.26,1564h-6.2l-1,9.87h6.2l-2.66,25.31h11l2.66-25.31h9l-2.65,25.31h11l2.65-25.31h6.46l1-9.87h-6.45l2.4-23.15ZM871.26,1564h-9l2.41-23.15h9Z" transform="translate(-199.96 -346.22)"/><path class="cls-2" d="M932.76,1510.63v88.58H918.84v-67.57H904.28v-9.87a36.28,36.28,0,0,0,9.56-1,12,12,0,0,0,5.75-3.35,20.44,20.44,0,0,0,3.8-6.77Z" transform="translate(-199.96 -346.22)"/><path class="cls-2" d="M987.67,1547.33q-3.92-5.19-11.51-5.19-9,0-12.66,7.72h-.25v-17c0-4.05.63-6.87,1.9-8.48s3.2-2.4,5.82-2.4q7.21,0,7.21,8.73v2.53h13.16v-1.64q0-10.76-5.31-16.52t-15.44-5.75q-21.26,0-21.26,23v45.81q0,10.62,5.44,16.45t15.69,5.82q10.26,0,15.7-5.82t5.44-16.45v-15.82Q991.6,1552.52,987.67,1547.33Zm-10,31.89q0,8.61-7.22,8.6t-7.21-8.6v-15.69q0-8.73,7.21-8.73t7.22,8.73Z" transform="translate(-199.96 -346.22)"/><path class="cls-2" d="M1036.39,1515.19q-5.45-5.82-15.69-5.82t-15.69,5.82q-5.44,5.82-5.44,16.45v46.57q0,10.62,5.44,16.45t15.69,5.82q10.24,0,15.69-5.82t5.44-16.45v-46.57Q1041.83,1521,1036.39,1515.19Zm-8.48,63.9q0,8.73-7.21,8.73t-7.21-8.73v-48.34q0-8.73,7.21-8.73t7.21,8.73Z" transform="translate(-199.96 -346.22)"/><path class="cls-2" d="M1092.32,1558.21v20q0,10.76-5.31,16.51t-15.44,5.76q-10.12,0-15.44-5.76t-5.31-16.51v-7H1064v8q0,8.61,7.21,8.6t7.21-8.6v-19.87q0-8.73-7.21-8.73t-7.21,8.73v.76h-13.16l2.53-49.48h36.7v12.66h-24.3l-1.14,21.13h.25q3.93-6.45,12-6.45,7.59,0,11.51,5.18T1092.32,1558.21Z" transform="translate(-199.96 -346.22)"/><path class="cls-2" d="M1139,1570.49v-59.86h-15.19l-25.31,59.86v12.65h26.58v16.07H1139v-16.07h6.58v-12.65Zm-13.92,0h-13.92l13.66-34.55h.26Z" transform="translate(-199.96 -346.22)"/></g><path class="cls-2" d="M1256,1097.55q-32.4,1.5-64.81,2.6a222.86,222.86,0,0,0-41.45-76C1078.25,936,956.67,927.4,875.2,1005.11a222.87,222.87,0,0,0-60.51,95.11q-32.52-1.11-65-2.6c14.25-53.89,43.23-104.42,85.75-143.84,49.46-46.75,109.34-69.69,168.43-69.69,70.11,0,140.38,32.3,191.91,95.46A298.34,298.34,0,0,1,1256,1097.55Z" transform="translate(-199.96 -346.22)"/><path class="cls-2" d="M1399.8,1089q-57.36,4.14-115,7.1a332.74,332.74,0,0,0-68.68-136.7c-57.11-70-134.76-105.82-212.12-105.82-65.22,0-131.34,25.42-186.09,77.25-48.74,45.13-81.58,103.41-97,165.36q-33.57-1.71-67.07-3.84L680.57,1011l-56.66-68a534.29,534.29,0,0,1,61.18-90.33l76.56,37.72L831,833.08l-9.2-94.24a396,396,0,0,1,91.68-36.56l41.27,82.11,83.52-2.21,38.67-84.44a379.44,379.44,0,0,1,89.76,30.06L1161,822.69l71,53L1306.61,833a520,520,0,0,1,64.06,86.74l-53.58,71.69,33.05,88.79Z" transform="translate(-199.96 -346.22)"/><path class="cls-1" d="M863.3,1166.26c-.07,1.12-.11,1.69-.18,2.81-4.1-.26-6.15-.4-10.25-.68.1-1.39.15-2.09.24-3.48q.24-3.48-1-5.18a5.07,5.07,0,0,0-3.92-1.88c-3.59-.25-5.55,1.77-5.86,6.1a12.53,12.53,0,0,0,1.51,7,37.37,37.37,0,0,0,6.82,8.27c4.28,4.19,7.2,7.92,8.72,11.19a23,23,0,0,1,1.88,11.3c-.35,5.55-2,9.73-5.09,12.51s-7.3,4-12.74,3.6-9.34-2.16-11.86-5.3-3.56-7.47-3.13-13c.12-1.55.18-2.32.31-3.87,4.15.33,6.22.49,10.38.8l-.35,4.64q-.48,6.58,5.24,7a5.47,5.47,0,0,0,4.37-1.29c1-1,1.65-2.7,1.81-5.08a14,14,0,0,0-1.48-7.64c-1.18-2.26-3.48-5-6.81-8.32-4.22-4.18-7.08-7.94-8.62-11.21a21,21,0,0,1-1.84-10.8q.63-8,5.09-12.11t12.25-3.53q7.69.55,11.37,5.21T863.3,1166.26Z" transform="translate(-199.96 -346.22)"/><path class="cls-1" d="M880.89,1160.9l-1,17.92c6,.34,9,.5,15,.79-.19,3.87-.29,5.81-.48,9.69-6-.3-9-.45-15-.79-.47,8.34-.7,12.5-1.17,20.83,7.64.43,11.45.63,19.08,1l-.45,9.7c-12.11-.57-18.16-.9-30.25-1.63,1.64-27.13,2.47-40.69,4.12-67.81,11.72.71,17.59,1,29.32,1.58-.18,3.88-.27,5.82-.46,9.7C892.08,1161.51,888.35,1161.31,880.89,1160.9Z" transform="translate(-199.96 -346.22)"/><path class="cls-1" d="M925.67,1168.66q.12-3.5-1.2-5.14a5,5,0,0,0-4-1.75q-5.4-.19-5.66,6.29a12.66,12.66,0,0,0,1.75,7,37.57,37.57,0,0,0,7.09,8q6.63,6.08,9.09,10.89a23,23,0,0,1,2.26,11.23q-.25,8.36-4.67,12.68t-12.61,4q-8.07-.32-12-4.91t-3.56-12.83c.07-1.55.1-2.33.17-3.88l10.4.45c-.07,1.86-.11,2.79-.19,4.65q-.25,6.6,5.47,6.81a5.46,5.46,0,0,0,4.32-1.44q1.51-1.55,1.64-5.14a14.1,14.1,0,0,0-1.73-7.58,37.3,37.3,0,0,0-7.08-8.08c-4.36-4-7.35-7.71-9-10.92a21,21,0,0,1-2.2-10.73c.24-5.37,1.8-9.45,4.67-12.28s6.9-4.13,12.12-3.93,9,1.79,11.54,4.81,3.75,7.29,3.59,12.79c0,1.12-.06,1.68-.09,2.81-4.1-.12-6.16-.19-10.26-.33C925.6,1170.75,925.62,1170.05,925.67,1168.66Z" transform="translate(-199.96 -346.22)"/><path class="cls-1" d="M953.5,1154l-1.5,67.92c-4.44-.1-6.66-.15-11.1-.27.73-27.17,1.1-40.75,1.84-67.91C947,1153.86,949.19,1153.92,953.5,1154Z" transform="translate(-199.96 -346.22)"/><path class="cls-1" d="M1008.37,1206.73q0,8-4.14,12.34c-2.78,2.92-6.85,4.37-12.16,4.35s-9.37-1.51-12.13-4.45-4.1-7.06-4-12.37c.16-14.59.24-21.89.41-36.48q.09-8,4.21-12.29t11.83-4.28c5.15,0,9.07,1.47,11.79,4.38s4.09,7,4.11,12.32c0,2.87,0,4.31,0,7.18H998c0-3.15,0-4.72,0-7.86,0-4.21-1.8-6.31-5.4-6.32s-5.42,2.07-5.44,6.27c-.1,15.18-.15,22.77-.24,38q0,6.21,5.49,6.24t5.54-6.2c0-4.15,0-6.23,0-10.38,4.15,0,6.23,0,10.38,0C1008.35,1201,1008.36,1202.89,1008.37,1206.73Z" transform="translate(-199.96 -346.22)"/><path class="cls-1" d="M1037.55,1154.22c-5.83.1-8.75.14-14.58.2-4.18,27.22-6.35,40.82-10.81,68,4.12,0,6.18,0,10.3-.08.75-5.32,1.13-8,1.87-13.31,5-.06,7.53-.09,12.54-.17v-.2c.89,5.38,1.34,8.07,2.24,13.46,4.44-.08,6.66-.12,11.1-.22C1045,1194.85,1042.47,1181.31,1037.55,1154.22Zm-12,45.59c1.77-13.45,2.64-20.18,4.35-33.63h.19c2.12,13.4,3.19,20.1,5.36,33.5C1031.47,1199.74,1029.49,1199.77,1025.53,1199.81Z" transform="translate(-199.96 -346.22)"/><path class="cls-1" d="M1064.2,1172H1064c.58,19.82.87,29.74,1.44,49.56-4,.12-5.93.17-9.89.27-.67-27.16-1-40.75-1.67-67.91,5.4-.13,8.1-.21,13.5-.38,4.69,16.13,7.07,24.19,11.92,40.29h.2c-.58-16.25-.88-24.38-1.46-40.63,3.83-.14,5.75-.21,9.58-.37l2.75,67.88c-4.56.18-6.84.27-11.4.43C1073,1201.45,1070,1191.63,1064.2,1172Z" transform="translate(-199.96 -346.22)"/><path class="cls-1" d="M1133.74,1218.48c-6.22-26.85-9.27-40.28-15.21-67.17-5.83.32-8.74.47-14.57.75-3.15,27.35-4.8,41-8.24,68.38,4.12-.18,6.18-.27,10.29-.47.56-5.35.83-8,1.38-13.38,5-.24,7.52-.37,12.53-.64a1.28,1.28,0,0,1,0-.19c1.09,5.34,1.64,8,2.74,13.36C1127.09,1218.88,1129.31,1218.75,1133.74,1218.48Zm-25.5-21.16c1.26-13.5,1.87-20.26,3.07-33.77h.2c2.61,13.31,3.94,20,6.61,33.28C1114.17,1197,1112.19,1197.13,1108.24,1197.32Z" transform="translate(-199.96 -346.22)"/><path class="cls-1" d="M1163.54,1135.32a18.49,18.49,0,0,1-3.52,6.45,7,7,0,0,1-4.72,2.34,9,9,0,0,1-3.1-.26,16.45,16.45,0,0,1-2.88-1.17c-.6-.28-1.19-.53-1.76-.75a3.87,3.87,0,0,0-1.63-.28,2.84,2.84,0,0,0-2,1,11.14,11.14,0,0,0-1.66,3l-5.36-2.76a18.82,18.82,0,0,1,3.59-6.41,7,7,0,0,1,4.72-2.31,8.67,8.67,0,0,1,3.09.28,16.21,16.21,0,0,1,2.86,1.16c.6.28,1.19.53,1.76.75a3.7,3.7,0,0,0,1.63.27,2.81,2.81,0,0,0,2-1,10.59,10.59,0,0,0,1.63-3Z" transform="translate(-199.96 -346.22)"/><path class="cls-1" d="M1174.65,1215.64c-6.72-26.73-10-40.1-16.46-66.88-5.82.43-8.73.63-14.55,1-2.65,27.41-4,41.12-7,68.52,4.12-.25,6.17-.38,10.28-.65.46-5.36.68-8.05,1.13-13.4,5-.34,7.51-.52,12.52-.88,0-.08,0-.12,0-.19,1.19,5.32,1.79,8,3,13.31C1168,1216.16,1170.22,1216,1174.65,1215.64Zm-25.9-20.68c1-13.53,1.5-20.29,2.45-33.82l.2,0c2.86,13.27,4.31,19.9,7.23,33.15Z" transform="translate(-199.96 -346.22)"/><path class="cls-2" d="M1204.07,564.81,1101.77,673.9l-41.49-40.8a172.74,172.74,0,0,1-53,15.26c-30.42,3.77-75.87.9-121.19-33.46L787.87,659l-30.09-3.21,13.42-75.23,6.8-3.93-.23,1.29-12.95,72.59,22.07,2.35,0-.07L887,608c.16.15.31.31.47.45.74.67,1.5,1.34,2.27,2,.59.51,1.19,1,1.8,1.51l.1.08c.64.53,1.29,1.06,1.95,1.56.42.34.84.67,1.27,1s1.11.85,1.68,1.26l.69.5c1.41,1,2.86,2,4.33,3,.36.24.73.49,1.1.72s.92.6,1.39.89.89.57,1.35.84.85.53,1.29.78.86.52,1.3.77c.63.37,1.27.73,1.91,1.09s1.19.67,1.79,1,1.2.65,1.81,1a3.13,3.13,0,0,0,.36.19l1.24.64.23.11,1.11.55c.62.31,1.24.61,1.87.9s1.25.6,1.88.87,1.2.56,1.8.81a2.12,2.12,0,0,0,.31.14c.66.3,1.33.58,2,.85l.8.33a2.33,2.33,0,0,0,.33.14c.54.23,1.09.44,1.63.65s1.08.44,1.62.63c.17.07.34.14.5.19.39.16.77.3,1.16.44l.15,0q1.13.42,2.25.81h0c.86.31,1.73.6,2.6.88l2.64.84c.92.29,1.85.56,2.77.83l1.39.4,1.4.38,2.3.6.45.11c1.85.47,3.73.9,5.62,1.3.69.15,1.39.29,2.09.42l2.12.41.22,0c1.54.28,3.08.54,4.63.78l2.19.33.3,0,2.95.38,1.61.18.85.09c1.09.12,2.18.23,3.28.32l2.28.18,1.37.09,1.84.11c.61,0,1.22.06,1.84.09l1.85.07,1.13,0,1.41,0c1,0,2,0,3,0,.69,0,1.38,0,2.06,0l1.38,0h.06c1.22,0,2.43-.06,3.63-.11l1,0q3.54-.17,7-.47l1.64-.16c.52,0,1-.1,1.55-.16l2.09-.23c1.44-.17,2.88-.36,4.3-.57l1.84-.28q1.44-.22,2.88-.48c1.07-.19,2.15-.39,3.22-.6l2.4-.49,1.7-.37c1-.23,2-.46,3-.71.79-.19,1.57-.38,2.34-.59l1.4-.37.3-.09c.68-.18,1.37-.37,2-.57l1.32-.38,1.31-.4,1.16-.36c1.13-.34,2.25-.71,3.36-1.09.9-.3,1.8-.62,2.69-.94,1.27-.46,2.52-.93,3.77-1.42l1.6-.64c.8-.32,1.6-.65,2.39-1s1.58-.67,2.36-1l.85-.38q1.14-.51,2.25-1h0l1.28-.61,1.69-.85c.41-.2.81-.4,1.21-.62l.19-.09,1-.52.2-.11,40.21,39.54L1199,561.46l.7-.75Z" transform="translate(-199.96 -346.22)"/><path class="cls-3" d="M946.27,638.67c1.86.46,3.73.9,5.62,1.3C950,639.57,948.12,639.14,946.27,638.67Z" transform="translate(-199.96 -346.22)"/><path class="cls-3" d="M1055.79,628.58q-1.11.54-2.25,1l.85-.41Z" transform="translate(-199.96 -346.22)"/><path class="cls-1" d="M864.5,577.2l-32.35,14.21L835.4,574l4-1.75,20-8.78.16-.07A78.33,78.33,0,0,0,864.5,577.2Z" transform="translate(-199.96 -346.22)"/><path class="cls-1" d="M1097.44,434,1079.69,453l-19.58,20.89-3.83,4.08-.7.75,21.83,12.6q-.39-.82-.81-1.62a61.14,61.14,0,0,0-4.14-6.92l17.72-18.89c12.45,13.28,20.73,30.18,23.29,47.09q.1.63.18,1.26l5,2.91c0-.41-.07-.81-.11-1.22-2-19.21-11.18-38.67-25.34-53.65l4.21-4.49,65.44,64.33-11.8,12.58-.7.75,3.7,2.14.7-.75,11.29-12,1.92-2.13,8.45-9Zm-209,80,20.67-11.94-.76-.71-49.82-47.51-1.75-1.8-2.13,11.72L840.2,540.69,840,542l5.72-3.3.25-1.29,12.71-67.83,8,8.07c-8.9,13.88-13.44,28.78-13.44,44.33a76,76,0,0,0,.78,10.8c0,.35.11.7.16,1.06l4.36-2.52c0-.36-.09-.72-.13-1.07a70.81,70.81,0,0,1-.5-8.27,76,76,0,0,1,11.7-40.2l20.82,21.57a54.8,54.8,0,0,0-1.84,9.47C888.46,513.21,888.43,513.61,888.4,514Zm-28.83,49.4-.16.07c.05.22.11.44.16.64h0l-20.34,8.91.15-.78-4,1.75-3.25,17.39L864.5,577.2A78.33,78.33,0,0,1,859.57,563.42ZM888.4,514l20.67-11.94-.76-.71-49.82-47.51-1.75-1.8-2.13,11.72L840.2,540.69,840,542l5.72-3.3.25-1.29,12.71-67.83,8,8.07c-8.9,13.88-13.44,28.78-13.44,44.33a76,76,0,0,0,.78,10.8c0,.35.11.7.16,1.06l4.36-2.52c0-.36-.09-.72-.13-1.07a70.81,70.81,0,0,1-.5-8.27,76,76,0,0,1,11.7-40.2l20.82,21.57a54.8,54.8,0,0,0-1.84,9.47C888.46,513.21,888.43,513.61,888.4,514Zm57.87,124.65c1.85.47,3.73.9,5.62,1.3C950,639.57,948.13,639.13,946.27,638.67Zm108.12-9.45-.85.41q1.14-.51,2.25-1Zm43-195.19L1079.69,453l-19.58,20.89-3.83,4.08-.7.75,21.83,12.6q-.39-.82-.81-1.62a61.14,61.14,0,0,0-4.14-6.92l17.72-18.89c12.45,13.28,20.73,30.18,23.29,47.09q.1.63.18,1.26l5,2.91c0-.41-.07-.81-.11-1.22-2-19.21-11.18-38.67-25.34-53.65l4.21-4.49,65.44,64.33-11.8,12.58-.7.75,3.7,2.14.7-.75,11.29-12,1.92-2.13,8.45-9Zm-209,80,20.67-11.94-.76-.71-49.82-47.51-1.75-1.8-2.13,11.72L840.2,540.69,840,542l5.72-3.3.25-1.29,12.71-67.83,8,8.07c-8.9,13.88-13.44,28.78-13.44,44.33a76,76,0,0,0,.78,10.8c0,.35.11.7.16,1.06l4.36-2.52c0-.36-.09-.72-.13-1.07a70.81,70.81,0,0,1-.5-8.27,76,76,0,0,1,11.7-40.2l20.82,21.57a54.8,54.8,0,0,0-1.84,9.47C888.46,513.21,888.43,513.61,888.4,514Zm209-80L1079.69,453l-19.58,20.89-3.83,4.08-.7.75,21.83,12.6q-.39-.82-.81-1.62a61.14,61.14,0,0,0-4.14-6.92l17.72-18.89c12.45,13.28,20.73,30.18,23.29,47.09q.1.63.18,1.26l5,2.91c0-.41-.07-.81-.11-1.22-2-19.21-11.18-38.67-25.34-53.65l4.21-4.49,65.44,64.33-11.8,12.58-.7.75,3.7,2.14.7-.75,11.29-12,1.92-2.13,8.45-9Z" transform="translate(-199.96 -346.22)"/><path class="cls-1" d="M1226.3,510.68v-.05l0,0L1095.35,382.52l-44,47c-18.2-7.21-46.81-13-68.55-13-31.65,0-64.26,11.06-87,25.49L834.31,382.4v-.07h-.07l0,0v0l-22,2.36L778,576.6l-.23,1.29-12.95,72.59,22.07,2.35,0-.07L887,608c.16.15.31.31.47.45.74.67,1.5,1.34,2.27,2,.59.51,1.19,1,1.8,1.51l.1.08q1,.79,1.95,1.56c.42.34.84.67,1.27,1s1.11.85,1.68,1.26l.69.5c1.41,1,2.86,2,4.33,3,.36.24.73.49,1.1.72s.92.6,1.39.89l1.35.84q.63.4,1.29.78c.43.26.86.52,1.3.77.63.37,1.27.73,1.91,1.09l1.79,1c.6.33,1.2.65,1.81,1a3.13,3.13,0,0,0,.36.19l1.24.64.23.11,1.11.55c.62.31,1.24.61,1.87.9s1.25.59,1.88.87,1.19.55,1.8.81a2.12,2.12,0,0,0,.31.14c.66.29,1.33.58,2,.85l.8.33a2.33,2.33,0,0,0,.33.14c.54.23,1.09.44,1.63.65s1.07.43,1.62.63c.17.07.34.14.5.19.39.16.77.3,1.16.44l.15,0q1.13.42,2.25.81h0l2.6.88,2.64.84c.92.29,1.85.56,2.77.83l1.39.4,1.4.38,2.3.6.45.11c1.86.46,3.73.9,5.62,1.3.69.15,1.39.29,2.09.42l2.12.41.22,0c1.54.28,3.08.54,4.63.78l2.19.33.3,0,2.95.38,1.61.18.85.09c1.09.12,2.18.23,3.28.32l2.28.18,1.37.09,1.84.11c.61,0,1.22.06,1.84.09l1.85.07,1.13,0,1.41,0c1,0,2,0,3,0,.69,0,1.38,0,2.06,0l1.38,0h.06c1.22,0,2.43-.06,3.63-.11l1,0q3.54-.17,7-.47l1.64-.16c.52,0,1-.1,1.55-.16l2.09-.23c1.44-.17,2.88-.36,4.3-.57l1.84-.28q1.44-.22,2.88-.48c1.07-.19,2.15-.39,3.22-.6l2.4-.49,1.7-.37c1-.23,2-.46,3-.71l2.34-.59,1.4-.37.3-.09c.68-.18,1.37-.37,2-.57l1.32-.38,1.31-.4,1.16-.36c1.13-.34,2.25-.71,3.36-1.09l2.69-.94c1.27-.46,2.52-.93,3.77-1.42l1.6-.64c.8-.32,1.6-.65,2.39-1l2.36-1,.85-.38.85-.41,1.4-.64h0l1.28-.61,1.69-.85c.41-.2.81-.41,1.21-.62l.19-.09,1-.52.2-.11,40.21,39.54L1199,561.46l.7-.75,26.61-28.37V510.69ZM981.7,421.57c20.66,0,48.27,5.42,65.8,12l-.79.84-19.46,20.75-.07.07a119.32,119.32,0,0,0-18.35-4.68c-.91-.16-1.84-.31-2.78-.45q-2.79-.42-5.65-.72c-.56-.06-1.13-.12-1.71-.16-3.86-.36-7.8-.54-11.79-.54-25.14,0-48,7.15-64.94,18.79l-.25-.24-20.42-19.81-1.81-1.77C921.79,431.83,950.74,421.57,981.7,421.57Zm27.43,52.9-38.08,40.6-31.51-30.58-.75-.72-1.19-1.16q4.7-2.08,9.73-3.77c1.44-.5,2.91-1,4.4-1.39h0a125.26,125.26,0,0,1,35.14-4.93A127.84,127.84,0,0,1,1009.13,474.47Zm177.36,78.62-.71.75-84.18,89.75L1075,617.45A108.15,108.15,0,0,0,1101.12,592l.27-.41,52.69-56-3.7-2.14-41.68,44.43c5.76-13.69,9.48-30.59,9.48-42.71,0-.52,0-1.11-.08-1.74A77.74,77.74,0,0,0,1119,522q0-3.42-.32-6.86l-5-2.91a70.82,70.82,0,0,1-.3,21.4c-2.73,17.1-11.6,33.4-25.63,47.12a120.93,120.93,0,0,1-29.15,20.78,140.49,140.49,0,0,1-15,6.72,161.93,161.93,0,0,1-57.44,10.2c-28.62,0-55.71-7-78.34-20.15A112.85,112.85,0,0,1,876.51,572a91.14,91.14,0,0,1-8.25-12,78,78,0,0,1-9.46-26.38c-.12-.77-.24-1.54-.34-2.29l-4.36,2.52.09.55c0,.16.07.3.1.45-.06.61-.1,1.18-.1,1.63,0,6.19,3.58,20.6,5.22,27l.16-.07a78.33,78.33,0,0,0,4.93,13.78l-32.35,14.21L835.4,574l4-1.75,6.29-33.59L840,542l-6.3,33.64L830.42,593l5.55-2.44,0-.14,28.51-12.5a93.14,93.14,0,0,0,17.81,25.54l1,1-95.41,42.71.26-1.5,14.39-82.1.23-1.28,30.76-175.47,65.16,63.23,20.42,19.81L934.71,485l.73.71.74.72,35.56,34.72v16.49l15.75,15.49L938.31,576a88.86,88.86,0,0,1-28.33-19c-.17-.17-.31-.36-.48-.54l37.73-18-38.16-36.39L888.4,514q-.18,2.15-.18,4.29a54.26,54.26,0,0,0,1.5,12.58A59.31,59.31,0,0,0,897,548.1a70.63,70.63,0,0,0,9.71,12.37C917,571,931,579.34,947.2,584.5a127.8,127.8,0,0,0,38.88,5.91,130.72,130.72,0,0,0,32-3.95,119,119,0,0,0,16.91-5.68,94.41,94.41,0,0,0,31.18-21c8.29-8.7,13.74-18.4,16.23-28.85a54.64,54.64,0,0,0,1.51-12.57,64.07,64.07,0,0,0-6.54-27l-21.83-12.6-8.82,9.39-25.14,26.83h0l-2.18,2.32,7.34,7.19,34,34a91,91,0,0,1-27.6,18h0l-22.47-22.08-22-21.69-15-14.56,35.66-38,17.05-18.18.7-.75.16-.17,19.46-20.75,48.64-51.85,128,125.46ZM991,556.62l4.43,4.36,21.25,20.89a125.78,125.78,0,0,1-30.64,3.75,123,123,0,0,1-37.48-5.69c-1.58-.5-3.12-1.07-4.66-1.63Zm-89.38-10c-.24-.36-.52-.69-.74-1.05a54.58,54.58,0,0,1-6.65-15.8c-.14-.57-.19-1.14-.31-1.71a57.34,57.34,0,0,1,7-15.57l24.72,25Zm162.05,8.85-30.89-30.8,26.15-27.9c9.31,7.95,16.19,17.44,19.84,27.87a51.14,51.14,0,0,1-.92,5.13C1075.69,539,1070.9,547.62,1063.71,555.45Z" transform="translate(-199.96 -346.22)"/><polygon class="cls-2" points="925.95 310.75 925.95 311.67 923.48 311.67 923.48 319.09 922.43 319.09 922.43 311.67 919.97 311.67 919.97 310.75 925.95 310.75"/><path class="cls-2" d="M1134.61,665.31h-1l-.21-3.66c-.05-1.17-.12-2.57-.11-3.6h0c-.28,1-.61,2-1,3.16l-1.43,4H1130l-1.32-4c-.38-1.18-.7-2.26-.93-3.24h0c0,1-.08,2.43-.15,3.68l-.21,3.58h-1l.57-8.34h1.32l1.38,4c.34,1,.62,1.94.82,2.8h0c.2-.84.49-1.75.85-2.8l1.44-4h1.33Z" transform="translate(-199.96 -346.22)"/></svg>