<svg xmlns="http://www.w3.org/2000/svg" viewBox="0 0 1438.23 1610.63"><defs><style>.cls-1,.cls-3{fill:#fff;}.cls-2,.cls-4{fill:#00181f;}.cls-3,.cls-4{fill-rule:evenodd;}</style></defs><g id="BackGround"><rect class="cls-1" x="436.99" y="521.85" width="566.93" height="566.93"/></g><g id="Layer_1" data-name="Layer 1"><g id="Robótica"><path class="cls-2" d="M737.63,1805.31c-15,0-28-4.24-37.76-11.79a16.72,16.72,0,0,1-15.55,10.56h-18a16.71,16.71,0,0,1-16-11.87,16.71,16.71,0,0,1-16,11.87H616.42a16.72,16.72,0,0,1-16.72-16.71v-6c-9.64,14.9-26,23.92-46.06,23.92-15.46,0-28.82-5.86-38.37-15.78a42.89,42.89,0,0,1-4.61,4.41c-9.5,7.57-22.69,11-41.7,11a162.35,162.35,0,0,1-21.57-1.38,16.71,16.71,0,0,1-13.32-10.34c-9.36,7.7-21.54,12.07-35.52,12.07a53.65,53.65,0,0,1-29-8.14,16.71,16.71,0,0,1-13.54,6.91H337.68a16.71,16.71,0,0,1-11.84-4.91,16.71,16.71,0,0,1-11.85,4.91H296.26a16.71,16.71,0,0,1-16.71-16.71V1709.3a16.7,16.7,0,0,1,14.18-16.52,182.9,182.9,0,0,1,26.36-1.78c16.24,0,27.3,3,35.89,9.72l.31.25a38.27,38.27,0,0,1,4.87,4.82c9.74-9.75,23.19-15.5,38.69-15.5,13.65,0,25.54,4.26,34.69,11.74a16.69,16.69,0,0,1,12-9.16c6-1.12,16.51-1.87,26.2-1.87,12.1,0,22.11,1.12,31.56,6.55a35.72,35.72,0,0,1,11,9.3,51.93,51.93,0,0,1,17-12c.07-.09.13-.19.2-.29l9.85-14.45a16.72,16.72,0,0,1,13.81-7.3h18.77a16.72,16.72,0,0,1,16.54,19.1,17.26,17.26,0,0,1,3.76-.42H656a16.62,16.62,0,0,1,5.21.83,16.51,16.51,0,0,1,5.2-.83h18a16.73,16.73,0,0,1,15.92,11.59c10.2-8.16,23.65-12.82,39.15-12.82,10.27,0,20.35,2,27,5.29a16.69,16.69,0,0,1,6.91,6.44,16.71,16.71,0,0,1,15.52-10.5h23.46a16.7,16.7,0,0,1,16,11.77l24.52,79.13a16.71,16.71,0,0,1-16,21.66H817.52a16.71,16.71,0,0,1-16-11.89l-1.23-4.1-1,3.76a16.7,16.7,0,0,1-16.1,12.23H764.6a16.76,16.76,0,0,1-6.45-1.29A77.85,77.85,0,0,1,737.63,1805.31ZM554.43,1738h-.15c-.2.26-2.22,3.29-2.22,10.07,0,6.57,1.94,9.43,2.42,9.78h0c.62-.7,2.38-3.85,2.38-10.3C556.88,1742,555.21,1738.78,554.43,1738Zm-155.09,0h-.15c-.2.26-2.22,3.29-2.22,10.07,0,6.57,1.94,9.42,2.42,9.78h0c.63-.71,2.38-3.85,2.38-10.3C401.79,1742,400.12,1738.78,399.34,1738Zm340.88.53c-6.37,0-8.52,2.37-8.52,9.37,0,7.73,3,9.19,8.63,9.19a28.7,28.7,0,0,0,8.69-1.44,16.58,16.58,0,0,1,8.13-1.09l4.42-14.45a16.86,16.86,0,0,1-12.36.12A24.44,24.44,0,0,0,740.22,1738.52Z" transform="translate(-279.55 -194.69)"/><path class="cls-3" d="M314,1743.39h7c8.91,0,14.19-4.58,14.19-11.45,0-7.23-5-10.93-13.13-11.11a33.58,33.58,0,0,0-8.11.71v21.85Zm-17.71-34.19a166.78,166.78,0,0,1,23.83-1.58c11.72,0,20,1.76,25.57,6.16,4.67,3.89,7.26,9.35,7.26,16.57,0,10.22-7.15,17.1-13.94,19.57v.35c5.5,2.12,8.55,7.58,10.54,14.8,2.47,8.81,4.94,19.21,6.47,22.21H337.66c-1.29-2.12-3.3-8.82-5.5-18.33-2.2-9.7-5.51-12.69-12.78-12.69H314v31H296.26Z" transform="translate(-279.55 -194.69)"/><path class="cls-3" d="M380.61,1748c0,15.52,7.3,26.44,19.26,26.44s19-11.45,19-27c0-14.1-6.8-26.26-19.12-26.26-12.07,0-19.14,11.45-19.14,26.78Zm57.15-1c0,25.91-15.73,41.77-38.84,41.77-23.45,0-37.18-17.8-37.18-40.36,0-23.62,15.13-41.41,38.48-41.41C424.51,1706.92,437.76,1725.06,437.76,1746.92Z" transform="translate(-279.55 -194.69)"/><path class="cls-3" d="M467.22,1774.59a37.94,37.94,0,0,0,6.92.35c8.09,0,15.25-3.17,15.25-11.45,0-7.94-7.16-11.1-16.06-11.1h-6.11v22.2Zm0-35.07h5.86c9.38,0,14.44-3.88,14.44-9.69,0-6-4.59-9.17-12.68-9.17a35.48,35.48,0,0,0-7.62.53v18.33ZM449.5,1709.2c4.71-.88,14.19-1.58,23.13-1.58,10.89,0,17.64,1.23,23.33,4.4,5.3,3,9.5,8.46,9.5,15.51s-4.11,13.75-13,16.92v.36c9,2.46,15.73,9.16,15.73,19.38a20.74,20.74,0,0,1-8.22,16.74c-5.71,4.58-15.37,7.23-31.09,7.23a121,121,0,0,1-19.35-1.23Z" transform="translate(-279.55 -194.69)"/><path class="cls-3" d="M575.16,1689.47c-5.74,5.81-8.6,8.63-14.33,14.45H546.52c4-5.82,5.92-8.64,9.85-14.45ZM535.63,1748c0,15.52,7.26,26.44,19.23,26.44s19-11.45,19-27c0-14.1-6.8-26.26-19.12-26.26-12.09,0-19.12,11.45-19.12,26.78Zm57.12-1c0,25.91-15.72,41.77-38.84,41.77-23.45,0-37.19-17.8-37.19-40.36,0-23.62,15.14-41.41,38.49-41.41C579.5,1706.92,592.75,1725.06,592.75,1746.92Z" transform="translate(-279.55 -194.69)"/><path class="cls-3" d="M616.47,1723.3H595.22v-15H656v15H634.39v64H616.47Z" transform="translate(-279.55 -194.69)"/><path class="cls-3" d="M683.46,1708.32v79h-18v-79Z" transform="translate(-279.55 -194.69)"/><path class="cls-3" d="M757,1785.16c-3.28,1.59-10.66,3.35-20.28,3.35-27.34,0-41.42-17.09-41.42-39.47,0-27.15,19.25-42.12,43.16-42.12,9.29,0,16.32,1.93,19.48,3.52-1.47,5.64-2.17,8.63-3.63,14.27a37.56,37.56,0,0,0-15-3c-14.2,0-25.24,8.63-25.24,26.25,0,15.69,9.4,25.74,25.34,25.74a44.55,44.55,0,0,0,14.9-2.65C755.4,1776.7,755.93,1779.53,757,1785.16Z" transform="translate(-279.55 -194.69)"/><path class="cls-3" d="M808.41,1753.62l-4.93-16.75c-1.41-4.76-2.8-10.57-4-15.33h-.23c-1.16,4.76-2.33,10.75-3.63,15.33-1.87,6.7-2.82,10.05-4.69,16.75Zm-20,13.39c-2.26,8.11-3.39,12.16-5.64,20.27H764.18c9.67-31.55,14.5-47.41,24.18-79h23.46c9.79,31.55,14.69,47.41,24.49,79H817.08c-2.45-8.11-3.66-12.16-6.09-20.27Z" transform="translate(-279.55 -194.69)"/></g><g id="Sem"><path class="cls-2" d="M882,1794.39a54.48,54.48,0,0,1-23.24-5.15,16.72,16.72,0,0,1-8.69-18.9l2.56-10.4a16.61,16.61,0,0,1,2.71-5.84,30.7,30.7,0,0,1-5-17c0-19.29,15.83-33.28,37.65-33.28a51.63,51.63,0,0,1,17,2.66,16.66,16.66,0,0,1,7.52-1.78h34.18a16.91,16.91,0,0,1,6.1,1.14,16.69,16.69,0,0,1,6.09-1.14h16.67a16.71,16.71,0,0,1,10.76,3.92,16.73,16.73,0,0,1,10.76-3.92h16.34a16.72,16.72,0,0,1,16.69,15.79l3.05,55.35a16.71,16.71,0,0,1-16.69,17.63h-12.23a16.63,16.63,0,0,1-8.15-2.12,16.75,16.75,0,0,1-6.32,1.24H980a16.74,16.74,0,0,1-5.49-.93,16.64,16.64,0,0,1-7.57,1.81H955.38a16.7,16.7,0,0,0-7.53,0H912.53a16.57,16.57,0,0,1-10.12-3.42A46,46,0,0,1,882,1794.39Z" transform="translate(-279.55 -194.69)"/><path class="cls-3" d="M868.88,1763.93a31.59,31.59,0,0,0,13.89,3.52c5.74,0,8.8-2.47,8.8-6s-2.67-5.46-9.28-7.75c-9.14-3.35-15.21-8.29-15.21-16.39,0-9.52,7.88-16.74,20.94-16.74a34.71,34.71,0,0,1,14.13,2.82c-1.11,4-1.67,6.16-2.78,10.22a26.44,26.44,0,0,0-11.58-2.64c-5.41,0-8,2.46-8,5.28,0,3.53,3.14,5.11,10.26,7.75,9.72,3.71,14.38,8.82,14.38,16.57,0,9.17-7.14,17.1-22.35,17.1-6.31,0-12.55-1.59-15.69-3.35C867.37,1770.27,867.88,1768.16,868.88,1763.93Z" transform="translate(-279.55 -194.69)"/><path class="cls-3" d="M945.78,1753.53H925.4v13h22.75V1777H912.84v-55.51H947v10.4H925.4v11.45h20.38Z" transform="translate(-279.55 -194.69)"/><path class="cls-3" d="M1003.51,1755.65c-.25-6.53-.51-14.63-.51-22.74h-.23c-1.73,7-4,15-6.17,21.5-2.68,8.64-4,12.87-6.73,21.68h-9.76c-2.37-8.64-3.57-12.87-5.92-21.5-1.8-6.52-3.69-14.45-5-21.68H969c-.32,7.58-.58,16-1,22.91-.4,8.46-.62,12.69-1,21.15H955.47c1.41-22.2,2.13-33.31,3.52-55.51h16.69c2.15,7.4,3.24,11.1,5.41,18.5,1.73,6.52,3.46,13.39,4.69,19.92H986c1.57-6.53,3.45-13.75,5.27-19.92,2.36-7.4,3.54-11.1,5.91-18.5h16.33c1.22,22.2,1.83,33.31,3,55.51h-12.23C1004,1768.51,1003.85,1764.28,1003.51,1755.65Z" transform="translate(-279.55 -194.69)"/></g><g id="Fronteira"><path class="cls-2" d="M1669.15,1805.31a74.31,74.31,0,0,1-22.14-3.48,16.63,16.63,0,0,1-8.37,2.25h-19.23a16.7,16.7,0,0,1-16-11.89l-1.24-4.1-1,3.76a16.71,16.71,0,0,1-16.1,12.23h-18.55a16.22,16.22,0,0,1-2.51-.19,16,16,0,0,1-2.51.19h-18.31a16.69,16.69,0,0,1-11.84-4.92,16.67,16.67,0,0,1-11.84,4.92h-17.73a16.66,16.66,0,0,1-7.77-1.9,16.62,16.62,0,0,1-7.76,1.9h-18a16.76,16.76,0,0,0-13,0H1404.8a16.72,16.72,0,0,1-15.12-9.58,16.7,16.7,0,0,1-15.12,9.58h-17.94a16.72,16.72,0,0,1-15.43-10.27,16.72,16.72,0,0,1-15.43,10.27H1307a16.74,16.74,0,0,1-14.62-8.61l-.53-1a16.74,16.74,0,0,1-15.13,9.58h-16.42a16.7,16.7,0,0,1-15.62-10.75c-9.35,7.64-21.49,12-35.42,12a53.71,53.71,0,0,1-29-8.14,16.7,16.7,0,0,1-13.53,6.91h-18.31a16.72,16.72,0,0,1-11.85-4.92,16.64,16.64,0,0,1-11.84,4.92H1107a16.71,16.71,0,0,1-16.71-16.71v-15H1080v15a16.72,16.72,0,0,1-16.72,16.71h-18a16.72,16.72,0,0,1-16.72-16.71v-79.14a16.72,16.72,0,0,1,16.72-16.71h48.34a16.66,16.66,0,0,1,7.89,2,15.78,15.78,0,0,1,2.92-.72,182.8,182.8,0,0,1,26.36-1.78c16.23,0,27.3,3,35.88,9.73l.31.24a37.78,37.78,0,0,1,4.88,4.83c9.74-9.76,23.18-15.51,38.69-15.51,13.48,0,25.24,4.15,34.33,11.45a16.73,16.73,0,0,1,15.41-10.22h20.9a16.71,16.71,0,0,1,14.07,7.7,16.7,16.7,0,0,1,14.07-7.7h16.43a17.07,17.07,0,0,1,4.82.7,16.9,16.9,0,0,1,4.81-.7h60.76a16.69,16.69,0,0,0,8.65,0h48.82a16.78,16.78,0,0,1,7.32,1.68,16.74,16.74,0,0,1,7.31-1.68h18A16.58,16.58,0,0,1,1495,1694a16.13,16.13,0,0,1,4.23-1.23,182.76,182.76,0,0,1,26.35-1.78c16.24,0,27.31,3,35.89,9.73l.31.24a36,36,0,0,1,9.81,12.57l3.11-10.19a16.71,16.71,0,0,1,16-11.83h23.47a16.71,16.71,0,0,1,16,11.77l3.9,12.58c6.41-15.43,22.86-25.58,43.72-25.58a65.27,65.27,0,0,1,27.06,5.54,16.72,16.72,0,0,1,9.22,19.72l-4,14.27a16.81,16.81,0,0,1-3.68,6.69c7.6,7.21,11.45,16.38,11.45,27.42C1717.78,1784.53,1702.74,1805.31,1669.15,1805.31ZM1210,1738h-.16c-.2.26-2.21,3.29-2.21,10.07,0,6.57,1.94,9.42,2.42,9.78h0c.62-.7,2.38-3.85,2.38-10.3C1212.49,1742,1210.81,1738.78,1210,1738Zm466.57.4Z" transform="translate(-279.55 -194.69)"/><path class="cls-3" d="M1045.08,1708.78h48.32v14.63H1063v18h28.37V1756H1063v31.72h-18Z" transform="translate(-279.55 -194.69)"/><path class="cls-3" d="M1124.62,1743.86h7.05c8.91,0,14.18-4.59,14.18-11.46,0-7.22-5-10.92-13.15-11.1a33.32,33.32,0,0,0-8.08.7v21.86Zm-17.7-34.19a164.49,164.49,0,0,1,23.79-1.59c11.74,0,20,1.76,25.59,6.17,4.67,3.88,7.26,9.34,7.26,16.56,0,10.23-7.15,17.1-14,19.57v.35c5.51,2.12,8.56,7.58,10.55,14.8,2.47,8.82,4.94,19.21,6.45,22.21h-18.29c-1.29-2.11-3.33-8.81-5.52-18.33-2.22-9.69-5.52-12.69-12.79-12.69h-5.39v31h-17.7Z" transform="translate(-279.55 -194.69)"/><path class="cls-3" d="M1191.27,1748.44c0,15.51,7.26,26.44,19.23,26.44s19-11.46,19-27c0-14.1-6.8-26.26-19.1-26.26-12.09,0-19.12,11.46-19.12,26.79Zm57.12-1.06c0,25.91-15.7,41.77-38.83,41.77-23.46,0-37.19-17.8-37.19-40.36,0-23.61,15.15-41.41,38.48-41.41C1235.14,1707.38,1248.39,1725.53,1248.39,1747.38Z" transform="translate(-279.55 -194.69)"/><path class="cls-3" d="M1260.15,1787.74v-79H1281c6.57,11.46,9.83,17.28,16.4,28.91a217.08,217.08,0,0,1,12.91,27.14h.35a301.05,301.05,0,0,1-1.52-33v-23.09h16.43v79h-18.77c-6.75-12.16-10.12-18.33-16.89-30.49a307.53,307.53,0,0,1-13.73-27.84h-.35c.46,10.57.71,21.67.71,34.54v23.79Z" transform="translate(-279.55 -194.69)"/><path class="cls-3" d="M1356.35,1723.76h-21.22v-15h60.77v15h-21.61v64h-17.94Z" transform="translate(-279.55 -194.69)"/><path class="cls-3" d="M1452.44,1754.25h-29.08v18.86h32.48v14.63H1405.4v-79h48.8v14.63h-30.84v16.39h29.08Z" transform="translate(-279.55 -194.69)"/><path class="cls-3" d="M1486,1708.78v79h-18v-79Z" transform="translate(-279.55 -194.69)"/><path class="cls-3" d="M1519.2,1743.86h7c8.91,0,14.18-4.59,14.18-11.46,0-7.22-5-10.92-13.13-11.1a33.66,33.66,0,0,0-8.1.7v21.86Zm-17.7-34.19a164.8,164.8,0,0,1,23.81-1.59c11.72,0,20,1.76,25.57,6.17,4.69,3.88,7.27,9.34,7.27,16.56,0,10.23-7.16,17.1-14,19.57v.35c5.51,2.12,8.55,7.58,10.55,14.8,2.46,8.82,4.93,19.21,6.46,22.21H1542.9c-1.29-2.11-3.33-8.81-5.52-18.33-2.22-9.69-5.49-12.69-12.77-12.69h-5.41v31h-17.7Z" transform="translate(-279.55 -194.69)"/><path class="cls-3" d="M1610.59,1754.08c-2-6.7-3-10-4.93-16.74-1.39-4.76-2.8-10.58-4-15.34h-.24c-1.17,4.76-2.35,10.76-3.63,15.34-1.89,6.69-2.83,10-4.71,16.74Zm-20,13.39c-2.26,8.11-3.37,12.16-5.63,20.27h-18.53c9.65-31.55,14.48-47.41,24.16-79H1614c9.79,31.55,14.71,47.41,24.53,79h-19.25c-2.43-8.11-3.64-12.16-6.09-20.27Z" transform="translate(-279.55 -194.69)"/><path class="cls-3" d="M1649.68,1769.41a45.56,45.56,0,0,0,19.83,4.94c8.2,0,12.55-3.53,12.55-8.64,0-4.93-3.77-7.76-13.26-11.1-13.07-4.59-21.71-11.81-21.71-23.44,0-13.4,11.26-23.79,29.91-23.79a48.11,48.11,0,0,1,20.18,4c-1.59,5.64-2.38,8.63-4,14.45a36.47,36.47,0,0,0-16.54-3.88c-7.76,0-11.51,3.53-11.51,7.76,0,4.93,4.49,7.22,14.66,11.1,13.89,5.11,20.53,12.51,20.53,23.62,0,13.22-10.2,24.49-31.9,24.49-9,0-18-2.29-22.41-4.76C1647.5,1778.23,1648.22,1775.23,1649.68,1769.41Z" transform="translate(-279.55 -194.69)"/></g><g id="RSF"><path class="cls-4" d="M1247.42,842.21,1207.21,802H782.44l-40.21,40.21a94.6,94.6,0,0,0,0,133.91l44.56,44.59h415c.3,0,.65,0,1,.07l44.66-44.66A94.65,94.65,0,0,0,1247.42,842.21Zm-447.8,191.37,128.2,128.3a95,95,0,0,0,134,0l128.2-128.3Zm262.18-377a94.75,94.75,0,0,0-134,0L795.28,789.17h399.1Z" transform="translate(-279.55 -194.69)"/><path class="cls-3" d="M1194.38,789.17H795.28L927.82,656.62a94.75,94.75,0,0,1,134,0Z" transform="translate(-279.55 -194.69)"/><path class="cls-3" d="M1190,1033.58l-128.2,128.3a95,95,0,0,1-134,0l-128.2-128.3Z" transform="translate(-279.55 -194.69)"/><path class="cls-3" d="M1247.42,976.12l-44.66,44.66c-.3,0-.65-.07-1-.07h-415l-44.56-44.59a94.6,94.6,0,0,1,0-133.91L782.44,802h424.77l40.21,40.21A94.65,94.65,0,0,1,1247.42,976.12Z" transform="translate(-279.55 -194.69)"/><path class="cls-4" d="M1015.14,654a19.31,19.31,0,1,1-19.3-19.39A19.28,19.28,0,0,1,1015.14,654Z" transform="translate(-279.55 -194.69)"/><path class="cls-4" d="M1015.14,1155.91a19.31,19.31,0,1,1-19.3-19.22A19.32,19.32,0,0,1,1015.14,1155.91Z" transform="translate(-279.55 -194.69)"/><path class="cls-4" d="M1404.71,836.22,1377.47,809l-18.24-18.24-25.67-25.67-29.22-29.22-25.6-25.6L1249.51,681l-25.6-25.6-54.86-54.85-29.22-29.23-25.63-25.63-21.26,21.21-28.3-28.19a95.66,95.66,0,0,0-135.31,0L901,566.92l-23.41-23.37L742.27,678.87,713,708.13l-25.6,25.56L658.18,763l-25.63,25.63-18.21,18.21-29.43,29.43a103.54,103.54,0,0,0,0,145.93l28.23,28.23,18.21,18.21L657,1054.22l54.9,54.89L741,1138.24l25.67,25.7,29.16,29.12,25.67,25.67L850.72,1248l25.66,25.67L901,1248.94l28.34,28.41a96.17,96.17,0,0,0,135.31,0l28.3-28.41,22.49,22.45,25.63-25.63,29.19-29.16,25.67-25.7,29.16-29.12L1279.9,1107l25.7-25.71,29.19-29.19,69.92-69.91a103.44,103.44,0,0,0,0-145.93ZM786.79,1020.71l-44.56-44.59a94.6,94.6,0,0,1,0-133.91L782.44,802h424.77l40.21,40.21a94.65,94.65,0,0,1,0,133.91l-44.66,44.66c-.3,0-.65-.07-1-.07ZM1190,1033.58l-128.2,128.3a95,95,0,0,1-134,0l-128.2-128.3ZM795.28,789.17,927.82,656.62a94.75,94.75,0,0,1,134,0l132.58,132.55Z" transform="translate(-279.55 -194.69)"/><path class="cls-4" d="M780.85,996.05a5.09,5.09,0,0,0,1.39,3.94,5.89,5.89,0,0,0,3.7,1.16h34.53c3.47,0,5.33-1.62,5.33-5.1V943.91h18.77l28,52.84a4.48,4.48,0,0,0,2.09,3.24,5.72,5.72,0,0,0,3.47,1.16H918a4.49,4.49,0,0,0,3.24-.93,3.42,3.42,0,0,0,1.39-3,7.36,7.36,0,0,0-1.39-3.71,22.83,22.83,0,0,1-2.09-3.94l-29.88-56.07a51.81,51.81,0,0,0,11.58-8.58,53.94,53.94,0,0,0,9-11.35,52.54,52.54,0,0,0,6-13.2A53.84,53.84,0,0,0,918,885.29a53.12,53.12,0,0,0-4.4-21.78,57,57,0,0,0-12.29-17.84,57.87,57.87,0,0,0-18.07-12.28,56.4,56.4,0,0,0-22.47-4.4H785.94a4.53,4.53,0,0,0-3.7,1.39,5.43,5.43,0,0,0-1.39,3.94V996.05Zm89.43-102.88a20,20,0,0,1-3.24,6.26,27.85,27.85,0,0,1-5.56,4.86,18.73,18.73,0,0,1-7.18,2.32,21.38,21.38,0,0,1-3.71.23,15.47,15.47,0,0,1-3.48.23H825.8V864.44h16c2.09,0,4.18.23,6,.23,1.85.23,3.94.23,6,.46a17.81,17.81,0,0,1,7.18,2.55,22.86,22.86,0,0,1,5.56,4.87,21.17,21.17,0,0,1,3.7,6.25,24.17,24.17,0,0,1,1.17,7,26,26,0,0,1-1.17,7.42Zm92.22,50.28a5.21,5.21,0,0,0-2.31-.7,7.39,7.39,0,0,0-3.94,1.63l-19.93,19.23c-1.85,1.62-2.78,3-2.78,4.4,0,1.16.93,2.79,2.78,4.64,0,.23,0,.23.23.23a.23.23,0,0,0,.23.23c0,.23,0,.23.24.23a.23.23,0,0,0,.23.24l.23.46,5.1,5.09a47.06,47.06,0,0,0,7.88,6.73,94.54,94.54,0,0,0,23.86,12.74,73.88,73.88,0,0,0,26.19,4.86,87.59,87.59,0,0,0,26.41-3.93,73.43,73.43,0,0,0,21.55-11.36,54.65,54.65,0,0,0,14.14-17.61,51.69,51.69,0,0,0,5.32-23.17c0-8.11-1.39-15.06-4.16-20.62a44.67,44.67,0,0,0-11.82-14.6,73.9,73.9,0,0,0-17.85-10.43,233.57,233.57,0,0,0-22.7-8.57c-4.18-1.39-7.88-2.78-11.13-3.94a38.1,38.1,0,0,1-8.11-3.94,15,15,0,0,1-4.86-4.4,8.77,8.77,0,0,1-1.62-5.56,9.21,9.21,0,0,1,1.62-5.56,11.63,11.63,0,0,1,3.94-3.48,20.15,20.15,0,0,1,6-2.08,34,34,0,0,1,7.18-.7,26.08,26.08,0,0,1,7.19,1.16,42.87,42.87,0,0,1,7,2.78,53.75,53.75,0,0,1,6,3.71c1.85,1.39,3.47,2.78,5.09,3.94l1.16.92a12.13,12.13,0,0,0,2.78,2.32,4.63,4.63,0,0,0,3,.93,5.24,5.24,0,0,0,3.94-1.85l17.85-19a10.77,10.77,0,0,0,2.08-2.78,6.62,6.62,0,0,0,.92-2.78,8.17,8.17,0,0,0-1.62-3.71c-1.16-1.38-2.54-2.77-4.17-4.4-1.85-1.39-3.94-3-6.25-4.63s-4.87-3.25-7.42-4.87a79.42,79.42,0,0,0-19.23-7.64,82.41,82.41,0,0,0-20.16-2.32,88.32,88.32,0,0,0-25.49,3.47,63.38,63.38,0,0,0-19.46,9.51,42.42,42.42,0,0,0-12.28,15.06A43.11,43.11,0,0,0,941,873a48,48,0,0,0,3.47,18.54,46.34,46.34,0,0,0,10.43,15.06,72.48,72.48,0,0,0,17.38,12.51,173.25,173.25,0,0,0,24.33,10.43c2.08.69,4.63,1.62,7.41,2.78a66.14,66.14,0,0,1,8.34,3.71,28.69,28.69,0,0,1,6.49,5.09,8.69,8.69,0,0,1,2.78,6.26,17.68,17.68,0,0,1-.93,6.26,14.56,14.56,0,0,1-3.24,5.09,18.84,18.84,0,0,1-6.49,3.48,28.74,28.74,0,0,1-9.73,1.39,31.17,31.17,0,0,1-12.28-2.32,55.06,55.06,0,0,1-11.58-6,66.21,66.21,0,0,1-7.19-5.33c-2.08-1.86-3.71-3.24-4.87-4.4-1.15-.93-2.08-1.63-2.78-2.09Zm133.71,52.83c0,2.78,1.38,4.4,4.17,4.87h35.45c3.47,0,5.33-1.62,5.33-4.87V943.22h52.36a4.39,4.39,0,0,0,3.48-1.85,5.73,5.73,0,0,0,1.39-3.71V909.85a5.09,5.09,0,0,0-1.39-3.93,7,7,0,0,0-3.71-1.16h-52.13V868.84h70.44a5.09,5.09,0,0,0,4.17-1.85,5.73,5.73,0,0,0,1.39-3.71V834.55a6.49,6.49,0,0,0-1.39-4.17,5.45,5.45,0,0,0-3.94-1.39h-111a4.43,4.43,0,0,0-3.25,1.62,4.91,4.91,0,0,0-1.38,3.71Z" transform="translate(-279.55 -194.69)"/></g><path class="cls-4" d="M1114.2,545.71l-21.26,21.21-28.3-28.19a95.66,95.66,0,0,0-135.31,0L901,566.92l-23.41-23.37-90.14-90.14a57.07,57.07,0,1,0-51,31.55,57.85,57.85,0,0,0,25.32-5.82l90.11,90.11-29.16,29.16L790.42,566a18.17,18.17,0,1,0-25.64,25.74L797.09,624l-29.23,29.23L584.77,470.14a18.11,18.11,0,0,0-25.66,25.57L742.27,678.87,713,708.13l-32.31-32.31a18.11,18.11,0,0,0-25.66,25.56l32.37,32.31L658.18,763,643,747.72a79.38,79.38,0,0,0-54-23.06H420.2a57.21,57.21,0,1,0-13.69,59,67.45,67.45,0,0,0,13.69-20.43H589a38.41,38.41,0,0,1,4.83-.38c8.86,0,17.08,4.08,23.48,10.41l15.26,15.29-18.21,18.21-15.26-15.33c-.86-.72-3.08-2.84-5.27-2.84l-.69.17-4.14.38H435.29a83.68,83.68,0,0,1-10.57,12.66,81.83,81.83,0,0,1-58.42,24.33,82.65,82.65,0,1,1,69.81-127.24H589.74a112.11,112.11,0,0,1,38.43,8.28A42.77,42.77,0,0,1,624,688.69a43.87,43.87,0,0,1,43.87-44.05l3.9.18L540.9,514.05a43.91,43.91,0,0,1,0-62A43.87,43.87,0,0,1,603,452L733.92,582.77A43.87,43.87,0,0,1,777.58,535l3.9.17-26.55-26.62A82.54,82.54,0,1,1,817,446.53l78.71,78.85,26.15-26.15a103.75,103.75,0,0,1,145.82,0l28.3,28.3Z" transform="translate(-279.55 -194.69)"/><path class="cls-4" d="M1535.3,706a82.83,82.83,0,0,1-76.93,22l-80.9,81-3.08,3.08,10.06,10.06a120.39,120.39,0,0,1,18.75,24.13,44,44,0,0,1-6.7,53.42,51.76,51.76,0,0,1-8.76,6.67c-1,.59-2,1.13-3,1.65a43.1,43.1,0,0,1-19.34,4.55,44,44,0,0,1-37.78-21.7,43.63,43.63,0,0,0-5.23-6.71L1020.77,582.6a33.65,33.65,0,0,0-47.6,0L671.53,884.13a40.82,40.82,0,0,0-5.24,6.71,44,44,0,0,1-37.81,21.7A43.06,43.06,0,0,1,609.17,908c-1-.52-2-1.06-3-1.65a43.82,43.82,0,0,1-15.47-60.09,120.61,120.61,0,0,1,18.72-24.13l10.09-10.06-5.2-5.27,18.21-18.21-15.26-15.29c-6.4-6.33-14.62-10.41-23.48-10.41a38.41,38.41,0,0,0-4.83.38H420.2a67.45,67.45,0,0,1-13.69,20.43,56.76,56.76,0,1,1,13.69-59H589a79.38,79.38,0,0,1,54,23.06L658.18,763l29.26-29.26-32.37-32.31a18.11,18.11,0,0,1,25.66-25.56L713,708.13l29.23-29.26L559.11,495.71a18.11,18.11,0,0,1,25.66-25.57L767.86,653.27,797.09,624l-32.31-32.27A18.17,18.17,0,0,1,790.42,566l32.3,32.38,29.16-29.16-90.11-90.11A57.85,57.85,0,0,1,736.45,485a56.87,56.87,0,1,1,51-31.55l90.14,90.14L901,566.92l28.34-28.19a95.66,95.66,0,0,1,135.31,0l28.3,28.19,21.26-21.21L1096,527.53l17.42-17.35a17.25,17.25,0,0,0,4.69-10.95V347.66a82.53,82.53,0,0,1-15.09-12,82.68,82.68,0,1,1,116.9,0,79.54,79.54,0,0,1-11.7,9.89V500l-.27,3.53a130,130,0,0,1-10,35.59,43.84,43.84,0,0,1,62,43.7L1391,452a43.88,43.88,0,0,1,62.08,62L1322.1,644.82l3.9-.18a43.62,43.62,0,0,1,31,12.87,44.13,44.13,0,0,1,12.66,35l26.59-26.6a82.52,82.52,0,0,1,80.53-101.16,81.84,81.84,0,0,1,58.48,24.34C1567.54,621.2,1567.54,673.73,1535.3,706Z" transform="translate(-279.55 -194.69)"/><path class="cls-3" d="M1517.1,607.27a56.92,56.92,0,0,0-91.24,65.57l-92.3,92.23-21.25,21.26-29.19-29.27,21.22-21.21,34.49-34.47a18.1,18.1,0,0,0-25.63-25.56l-34.46,34.43-21.29,21.28-29.19-29.26,206.57-206.56a18.12,18.12,0,0,0-25.67-25.57L1223.91,655.42l-21.28,21.29-29.2-29.26,21.26-21.25,34.46-34.43A18.16,18.16,0,0,0,1203.52,566l-34.47,34.54-21.28,21.32-29.19-29.23,21.25-21.32,17.45-17.45c14.44-14.31,22.35-33.51,25.19-53.94V331.27a80.42,80.42,0,0,0,19.3-13.72,56.93,56.93,0,1,0-80.52,0,55.54,55.54,0,0,0,22.65,13.72V500a43,43,0,0,1-12.25,28.37l-17.45,17.39-21.26,21.21-28.3-28.19a95.66,95.66,0,0,0-135.31,0L901,566.92l-23.41-23.37-90.14-90.14a57.07,57.07,0,1,0-51,31.55,57.85,57.85,0,0,0,25.32-5.82l90.11,90.11,23.44,23.41-29.15,29.23-23.45-23.48L790.42,566a18.17,18.17,0,1,0-25.64,25.74L797.09,624l23.41,23.41-29.19,29.26-23.45-23.44L584.77,470.14a18.11,18.11,0,0,0-25.66,25.57L742.27,678.87l23.4,23.4-29.22,29.26-55.72-55.71a18.11,18.11,0,0,0-25.66,25.56l32.37,32.31,23.38,23.37-29.2,29.27L658.18,763,643,747.72a79.38,79.38,0,0,0-54-23.06H420.2a57.21,57.21,0,1,0-13.69,59,67.45,67.45,0,0,0,13.69-20.43H589a38.41,38.41,0,0,1,4.83-.38c8.86,0,17.08,4.08,23.48,10.41l15.26,15.29L656,812.06l-28.27,28.2a98.7,98.7,0,0,0-14.79,19,18.11,18.11,0,0,0,6.4,24.84,17.48,17.48,0,0,0,9.18,2.67,18.43,18.43,0,0,0,15.67-9,57.4,57.4,0,0,1,9.17-11.8L955,564.29a59.69,59.69,0,0,1,84,0L1340.61,866a61.28,61.28,0,0,1,9.21,11.8,18.31,18.31,0,0,0,15.6,9,17.68,17.68,0,0,0,9.24-2.67l3.6-2.8a18.09,18.09,0,0,0,2.77-22,98.31,98.31,0,0,0-14.79-19l-28.3-28.2,21.29-21.32,92.26-92.37a55.57,55.57,0,0,0,25.36,6,57,57,0,0,0,40.25-97.13Zm-376.24-329.9a20.64,20.64,0,1,1,41.27,0,20.64,20.64,0,0,1-41.27,0ZM751.06,442.66a20.78,20.78,0,0,1-29.19,0,20.61,20.61,0,1,1,29.19,0ZM366.3,764.11a20.69,20.69,0,0,1-20.64-20.6,20.33,20.33,0,0,1,6.06-14.64,20.63,20.63,0,1,1,14.58,35.24Zm1125.13-102a20.78,20.78,0,0,1-29.19,0,20.76,20.76,0,0,1,0-29.26,20.78,20.78,0,0,1,29.19,0A20.76,20.76,0,0,1,1491.43,662.1Z" transform="translate(-279.55 -194.69)"/><path class="cls-4" d="M1710.32,1072.56a82.9,82.9,0,0,1-82.65,82.65c-29.12,0-53.11-14.65-67.42-31.38H1405a24.81,24.81,0,0,1-8.76-1.58,259.27,259.27,0,0,1-29.88-12.35,43.93,43.93,0,0,1-40.28,61.33l-3.93-.18L1453,1302a43.89,43.89,0,0,1-62.08,62L1260,1233.1a43.86,43.86,0,0,1-43.67,47.77l-3.94-.2,26.6,26.62a82.64,82.64,0,1,1-40,139,82.81,82.81,0,0,1-22.11-77l-79.7-79.67-29.47,29.43a103.23,103.23,0,0,1-145.82,0l-27.31-27.27-14.07,14.06c-2.77,2.64-5.06,7.22-7,13.55v147.71a74.61,74.61,0,0,1,17.35,13,82.65,82.65,0,1,1-116.9,0,98,98,0,0,1,9.45-8.29v-156a25.91,25.91,0,0,1,.75-6.16,178.88,178.88,0,0,1,11.36-32.62,44.25,44.25,0,0,1-18,3.73,43.8,43.8,0,0,1-43.66-47.77L603,1364a43.89,43.89,0,0,1-62.08-62l130.9-130.94-3.9.18a43.83,43.83,0,0,1-43.67-47.74l-26.55,26.41a82.83,82.83,0,0,1-22.15,77,82.64,82.64,0,1,1-58.45-141.17,93.11,93.11,0,0,1,18.48,2.09l77.58-77.48,18.21,18.21-88.94,88.91a57.34,57.34,0,0,0-25.33-5.82,56.87,56.87,0,1,0,51,31.52l88.91-89,29.2,29.19-31.11,31.07a18.14,18.14,0,0,0,12.83,31,18.09,18.09,0,0,0,12.83-5.27l31.15-31.11L741,1138.24,559.11,1320.16a18.17,18.17,0,0,0,25.66,25.74l181.93-182,29.16,29.12-31.08,31a18.16,18.16,0,1,0,25.64,25.73l31.11-31.1L850.72,1248l-14.07,14c-14.41,14.48-22.35,33.51-27.48,53.94v168.85c-3.11,2.64-10.68,7.39-17,13.55a56.91,56.91,0,0,0-16.7,40.39,56.93,56.93,0,1,0,97.22-40.39c-6.36-6.33-13.89-10.91-24.91-13.55V1315.92c2.77-10.75,7-20.77,14.51-28.2l14.06-14.1L901,1248.94l28.34,28.41a96.17,96.17,0,0,0,135.31,0l28.3-28.41,22.49,22.45,91.06,91.07a56.9,56.9,0,1,0,51-31.55,55.76,55.76,0,0,0-25.33,6l-91.1-91.14,29.19-29.16,33.27,33.23a18.16,18.16,0,0,0,25.63-25.73l-33.23-33.2,29.16-29.12,184.08,184.12a18.18,18.18,0,0,0,25.67-25.74l-184-184.08L1279.9,1107l33.3,33.26a18.16,18.16,0,0,0,25.63-25.74l-33.23-33.23,29.19-29.19,16.23,16.26c14.37,14.44,33.57,22.38,53.93,29.77h168.79c7.59,15,28.88,31.38,53.93,31.38a56.93,56.93,0,0,0,0-113.85c-25.05,0-46.34,16.22-53.93,43.7H1405c-10.68-4.93-20.74-9.17-28.3-16.74l-16.22-16.15,18.2-18.21,16.22,16.23c3.26,3.14,9,6,15.82,9.13h145.68c14.24-27.14,40.59-43.7,71.32-43.7A82.74,82.74,0,0,1,1710.32,1072.56Z" transform="translate(-279.55 -194.69)"/><path class="cls-4" d="M1684.58,1072.56a57.07,57.07,0,0,1-56.91,56.91c-25.05,0-46.34-16.39-53.93-31.38H1405c-20.36-7.39-39.56-15.33-53.93-29.77l-16.23-16.26-29.19,29.19,33.23,33.23a18.16,18.16,0,0,1-25.63,25.74L1279.9,1107l-29.12,29.12,184,184.08a18.18,18.18,0,0,1-25.67,25.74l-184.08-184.12-29.16,29.12,33.23,33.2a18.16,18.16,0,1,1-25.63,25.73l-33.27-33.23-29.19,29.16,91.1,91.14a55.76,55.76,0,0,1,25.33-6,56.87,56.87,0,1,1-51,31.55l-91.06-91.07-22.49-22.45-28.3,28.41a96.17,96.17,0,0,1-135.31,0L901,1248.94l-24.61,24.68-14.06,14.1c-7.56,7.43-11.74,17.45-14.51,28.2v168.85c11,2.64,18.55,7.22,24.91,13.55a57,57,0,1,1-80.52,0c6.29-6.16,13.86-10.91,17-13.55V1315.92c5.13-20.43,13.07-39.46,27.48-53.94l14.07-14-29.19-29.22-31.11,31.1a18.16,18.16,0,1,1-25.64-25.73l31.08-31-29.16-29.12-181.93,182a18.17,18.17,0,1,1-25.66-25.74L741,1138.24l-29.15-29.13-31.15,31.11a18.25,18.25,0,0,1-25.66,0,18.31,18.31,0,0,1,0-25.74l31.11-31.07L657,1054.22l-88.91,89a56.4,56.4,0,1,1-25.66-25.7l88.94-88.91-18.21-18.21,6.4-6.4-10.09-10.2a121.65,121.65,0,0,1-18.72-24.16,43.92,43.92,0,0,1,15.47-60.09,29.81,29.81,0,0,1,3-1.54,43.88,43.88,0,0,1,38.57,0h0a43.88,43.88,0,0,1,18.51,17,30.26,30.26,0,0,0,5.24,6.71l301.64,301.7a33.58,33.58,0,0,0,47.6,0l301.64-301.7a31.76,31.76,0,0,0,5.23-6.71,44.14,44.14,0,0,1,18.52-17h0a44.05,44.05,0,0,1,19.23-4.48h0a44.32,44.32,0,0,1,19.3,4.45,28.91,28.91,0,0,1,3,1.54,43.93,43.93,0,0,1,15.46,60.09,121.43,121.43,0,0,1-18.75,24.16l-10.06,10.2,4.24,4.24-18.2,18.21,16.22,16.15c7.56,7.57,17.62,11.81,28.3,16.74h168.79c7.59-27.48,28.88-43.7,53.93-43.7A57,57,0,0,1,1684.58,1072.56Z" transform="translate(-279.55 -194.69)"/><path class="cls-3" d="M1627.67,1015.62c-25.05,0-46.34,16.22-53.93,43.7H1405c-10.68-4.93-20.74-9.17-28.3-16.74l-16.22-16.15L1337.94,1004l28.3-28.37a94.64,94.64,0,0,0,14.82-19,18.16,18.16,0,0,0-6.4-24.84,19.15,19.15,0,0,0-9.24-2.47,18.11,18.11,0,0,0-15.6,8.8,62.74,62.74,0,0,1-9.21,12L1039,1251.61a59.35,59.35,0,0,1-84,0L653.36,950.05a57.54,57.54,0,0,1-9.21-12,18.24,18.24,0,0,0-15.67-8.8,19,19,0,0,0-9.18,2.47,18.15,18.15,0,0,0-6.4,24.84,93.78,93.78,0,0,0,14.79,19L656,1004l-24.61,24.61-88.94,88.91a57.34,57.34,0,0,0-25.33-5.82,56.87,56.87,0,1,0,51,31.52l88.91-89,24.64-24.68,29.2,29.26-24.64,24.61-31.11,31.07a18.14,18.14,0,0,0,12.83,31,18.09,18.09,0,0,0,12.83-5.27l31.15-31.11,24.57-24.57,29.22,29L559.11,1320.16a18.17,18.17,0,0,0,25.66,25.74l181.93-182,24.61-24.61,29.19,29.09-24.64,24.64-31.08,31a18.16,18.16,0,1,0,25.64,25.73l31.11-31.1,24.6-24.58,29.19,29.26L850.72,1248l-14.07,14c-14.41,14.48-22.35,33.51-27.48,53.94v168.85c-3.11,2.64-10.68,7.39-17,13.55a56.91,56.91,0,0,0-16.7,40.39,56.93,56.93,0,1,0,97.22-40.39c-6.36-6.33-13.89-10.91-24.91-13.55V1315.92c2.77-10.75,7-20.77,14.51-28.2l14.06-14.1L901,1248.94l28.34,28.41a96.17,96.17,0,0,0,135.31,0l28.3-28.41,22.49,22.45,91.06,91.07a56.9,56.9,0,1,0,51-31.55,55.76,55.76,0,0,0-25.33,6l-91.1-91.14-22.48-22.52,29.19-29.09,22.48,22.45,33.27,33.23a18.16,18.16,0,0,0,25.63-25.73l-33.23-33.2-22.49-22.48,29.2-29.09,22.45,22.45,184.08,184.12a18.18,18.18,0,0,0,25.67-25.74l-184-184.08-22.49-22.49,29.16-29L1279.9,1107l33.3,33.26a18.16,18.16,0,0,0,25.63-25.74l-33.23-33.23-22.48-22.45,29.19-29.26,22.48,22.52,16.23,16.26c14.37,14.44,33.57,22.38,53.93,29.77h168.79c7.59,15,28.88,31.38,53.93,31.38a56.93,56.93,0,0,0,0-113.85ZM531.69,1183a20.73,20.73,0,1,1,0-29A20.38,20.38,0,0,1,531.69,1183Zm321.39,355.68a20.92,20.92,0,0,1-6.06,14.61,20.78,20.78,0,0,1-29.19,0,21,21,0,0,1-6-14.61,20.64,20.64,0,1,1,41.27,0Zm389.79-165.5a20.78,20.78,0,0,1,29.19,0,20.74,20.74,0,0,1,0,29.26,20.78,20.78,0,0,1-29.19,0A20.76,20.76,0,0,1,1242.87,1373.21Zm384.8-280a20.69,20.69,0,0,1-20.64-20.6,20.44,20.44,0,0,1,6-14.65,20.65,20.65,0,1,1,14.61,35.25Z" transform="translate(-279.55 -194.69)"/></g></svg>